<?xml version="1.0" encoding="UTF-8"?>
<svg width="101px" height="100px" viewBox="0 0 101 100" version="1.1" xmlns="http://www.w3.org/2000/svg" xmlns:xlink="http://www.w3.org/1999/xlink">
    <!-- Generator: Sketch 54.1 (76490) - https://sketchapp.com -->
    <title>calendar</title>
    <desc>Created with Sketch.</desc>
    <g id="calendar" stroke="none" stroke-width="1" fill="none" fill-rule="evenodd" transform="translate(0.000000, 0.000000)">
        <g fill="#000000" fill-rule="nonzero">
            <circle id="Oval" cx="75.390625" cy="41.015625" r="3.90625"></circle>
            <path d="M84.375,7.8125 L79.296875,7.8125 L79.296875,3.90625 C79.296875,1.74882813 77.5480469,0 75.390625,0 C73.2332031,0 71.484375,1.74882813 71.484375,3.90625 L71.484375,7.8125 L53.7109375,7.8125 L53.7109375,3.90625 C53.7109375,1.74882813 51.9621094,0 49.8046875,0 C47.6472656,0 45.8984375,1.74882813 45.8984375,3.90625 L45.8984375,7.8125 L28.3203125,7.8125 L28.3203125,3.90625 C28.3203125,1.74882813 26.5714844,0 24.4140625,0 C22.2566406,0 20.5078125,1.74882813 20.5078125,3.90625 L20.5078125,7.8125 L15.625,7.8125 C7.009375,7.8125 0,14.821875 0,23.4375 L0,84.375 C0,92.990625 7.009375,100 15.625,100 L45.5078125,100 C47.6652344,100 49.4140625,98.2511719 49.4140625,96.09375 C49.4140625,93.9363281 47.6652344,92.1875 45.5078125,92.1875 L15.625,92.1875 C11.3171875,92.1875 7.8125,88.6828125 7.8125,84.375 L7.8125,23.4375 C7.8125,19.1296875 11.3171875,15.625 15.625,15.625 L20.5078125,15.625 L20.5078125,19.53125 C20.5078125,21.6886719 22.2566406,23.4375 24.4140625,23.4375 C26.5714844,23.4375 28.3203125,21.6886719 28.3203125,19.53125 L28.3203125,15.625 L45.8984375,15.625 L45.8984375,19.53125 C45.8984375,21.6886719 47.6472656,23.4375 49.8046875,23.4375 C51.9621094,23.4375 53.7109375,21.6886719 53.7109375,19.53125 L53.7109375,15.625 L71.484375,15.625 L71.484375,19.53125 C71.484375,21.6886719 73.2332031,23.4375 75.390625,23.4375 C77.5480469,23.4375 79.296875,21.6886719 79.296875,19.53125 L79.296875,15.625 L84.375,15.625 C88.6828125,15.625 92.1875,19.1296875 92.1875,23.4375 L92.1875,45.703125 C92.1875,47.8605469 93.9363281,49.609375 96.09375,49.609375 C98.2511719,49.609375 100,47.8605469 100,45.703125 L100,23.4375 C100,14.821875 92.990625,7.8125 84.375,7.8125 Z" id="Path"></path>
            <path d="M76.3671875,52.734375 C63.3359375,52.734375 52.734375,63.3359375 52.734375,76.3671875 C52.734375,89.3984375 63.3359375,100 76.3671875,100 C89.3984375,100 100,89.3984375 100,76.3671875 C100,63.3359375 89.3984375,52.734375 76.3671875,52.734375 Z M76.3671875,92.1875 C67.6439453,92.1875 60.546875,85.090625 60.546875,76.3671875 C60.546875,67.64375 67.6439453,60.546875 76.3671875,60.546875 C85.0904297,60.546875 92.1875,67.64375 92.1875,76.3671875 C92.1875,85.090625 85.0904297,92.1875 76.3671875,92.1875 Z" id="Shape"></path>
            <path d="M82.03125,72.4609375 L80.2734375,72.4609375 L80.2734375,68.359375 C80.2734375,66.2019531 78.5246094,64.453125 76.3671875,64.453125 C74.2097656,64.453125 72.4609375,66.2019531 72.4609375,68.359375 L72.4609375,76.3671875 C72.4609375,78.5246094 74.2097656,80.2734375 76.3671875,80.2734375 L82.03125,80.2734375 C84.1886719,80.2734375 85.9375,78.5246094 85.9375,76.3671875 C85.9375,74.2097656 84.1886719,72.4609375 82.03125,72.4609375 Z" id="Path"></path>
            <circle id="Oval" cx="58.3984375" cy="41.015625" r="3.90625"></circle>
            <circle id="Oval" cx="41.40625" cy="58.0078125" r="3.90625"></circle>
            <circle id="Oval" cx="24.4140625" cy="41.015625" r="3.90625"></circle>
            <circle id="Oval" cx="24.4140625" cy="58.0078125" r="3.90625"></circle>
            <circle id="Oval" cx="24.4140625" cy="75" r="3.90625"></circle>
            <circle id="Oval" cx="41.40625" cy="75" r="3.90625"></circle>
            <circle id="Oval" cx="41.40625" cy="41.015625" r="3.90625"></circle>
        </g>
    </g>
</svg>