<?xml version="1.0" encoding="UTF-8"?>
<svg width="100px" height="100px" viewBox="0 0 100 100" version="1.1" xmlns="http://www.w3.org/2000/svg" xmlns:xlink="http://www.w3.org/1999/xlink">
    <!-- Generator: Sketch 54.1 (76490) - https://sketchapp.com -->
    <title>canceled</title>
    <desc>Created with Sketch.</desc>
    <g id="canceled" stroke="none" stroke-width="1" fill="none" fill-rule="evenodd">
        <g id="cancel" transform="translate(0.000000, 0.000000)" fill="#E2574C" fill-rule="nonzero">
            <path d="M58.6592334,49.7993031 L67.4675958,40.9909408 C68.6853659,39.7700348 68.6853659,37.8013937 67.4675958,36.5867596 L63.0634146,32.1794425 C61.8456446,30.9648084 59.8770035,30.9616725 58.6592334,32.1794425 L49.8477352,40.9909408 L41.0425087,32.1857143 C39.8216028,30.9648084 37.8498258,30.9648084 36.6320557,32.1794425 L32.2278746,36.5867596 C31.0101045,37.8013937 31.0132404,39.7763066 32.2341463,40.9940767 L41.0393728,49.7993031 L32.2494774,58.5888502 C31.0317073,59.8066202 31.0317073,61.7752613 32.2494774,62.9930314 L36.6536585,67.4003484 C37.8714286,68.6149826 39.8400697,68.6181185 41.0578397,67.4003484 L49.8473868,58.6108014 L58.6993031,67.4658537 C59.9202091,68.6867596 61.8919861,68.6867596 63.1097561,67.4689895 L67.5139373,63.0648084 C68.7317073,61.8470383 68.7285714,59.8752613 67.5108014,58.6543554 L58.6592334,49.7993031 Z M49.8351916,0.00139372822 C22.310453,0.00139372822 0,22.3121951 0,49.8334495 C0,77.3581882 22.310453,99.6686411 49.8351916,99.6686411 C77.3599303,99.6686411 99.6703833,77.3581882 99.6703833,49.8334495 C99.6703833,22.315331 77.3595819,0.00139372822 49.8351916,0.00139372822 Z M49.8351916,90.3247387 C27.471777,90.3247387 9.34425087,72.1972125 9.34425087,49.8337979 C9.34425087,27.4703833 27.471777,9.34250871 49.8351916,9.34250871 C72.1986063,9.34250871 90.3261324,27.4700348 90.3261324,49.8334495 C90.3261324,72.1968641 72.1986063,90.3247387 49.8351916,90.3247387 Z" id="Shape"></path>
        </g>
    </g>
</svg>