<?xml version="1.0" encoding="UTF-8"?>
<svg width="100px" height="100px" viewBox="0 0 100 100" version="1.1" xmlns="http://www.w3.org/2000/svg" xmlns:xlink="http://www.w3.org/1999/xlink">
    <!-- Generator: Sketch 54.1 (76490) - https://sketchapp.com -->
    <title>checked</title>
    <desc>Created with Sketch.</desc>
    <g id="checked" stroke="none" stroke-width="1" fill="none" fill-rule="evenodd">
        <g fill-rule="nonzero">
            <circle id="Oval" fill="#5FCA99" cx="49.9212598" cy="49.9212598" r="49.9212598"></circle>
            <path d="M37.1653543,72.4409449 L62.8346457,98.1102362 C84.0944882,92.4409449 99.8425197,73.0708661 99.8425197,49.9212598 C99.8425197,49.4488189 99.8425197,48.976378 99.8425197,48.503937 L79.6850394,29.9212598 L37.1653543,72.4409449 Z" id="Path" fill="#44B690"></path>
            <g id="Group" transform="translate(16.732283, 24.606299)" fill="#FFFFFF">
                <path d="M34.4488189,36.496063 C36.6535433,38.7007874 36.6535433,42.480315 34.4488189,44.6850394 L29.8818898,49.2519685 C27.6771654,51.4566929 23.8976378,51.4566929 21.6929134,49.2519685 L1.69291339,29.0944882 C-0.511811024,26.8897638 -0.511811024,23.1102362 1.69291339,20.9055118 L6.25984252,16.3385827 C8.46456693,14.1338583 12.2440945,14.1338583 14.4488189,16.3385827 L34.4488189,36.496063 Z" id="Path"></path>
                <path d="M51.9291339,1.69291339 C54.1338583,-0.511811024 57.9133858,-0.511811024 60.1181102,1.69291339 L64.6850394,6.25984252 C66.8897638,8.46456693 66.8897638,12.2440945 64.6850394,14.4488189 L30.0393701,48.9370079 C27.8346457,51.1417323 24.0551181,51.1417323 21.8503937,48.9370079 L17.2834646,44.3700787 C15.0787402,42.1653543 15.0787402,38.3858268 17.2834646,36.1811024 L51.9291339,1.69291339 Z" id="Path"></path>
            </g>
        </g>
    </g>
</svg>