<?xml version="1.0" encoding="UTF-8"?>
<svg width="100px" height="100px" viewBox="0 0 100 100" version="1.1" xmlns="http://www.w3.org/2000/svg" xmlns:xlink="http://www.w3.org/1999/xlink">
    <!-- Generator: Sketch 54.1 (76490) - https://sketchapp.com -->
    <title>close</title>
    <desc>Created with Sketch.</desc>
    <g id="close" stroke="none" stroke-width="1" fill="none" fill-rule="evenodd">
        <g transform="translate(50.000000, 50.000000) scale(1, -1) translate(-50.000000, -50.000000) translate(0.000000, 0.500000)" fill="#000000" fill-rule="nonzero" id="Path">
            <path d="M58.2578749,49.5010319 L97.1900186,10.5688882 C99.6088307,8.15213992 99.6088307,4.23085743 97.1900186,1.81410911 C94.7712064,-0.604703037 90.8540516,-0.604703037 88.4352394,1.81410911 L49.5030957,40.7462528 L10.5688882,1.81410911 C8.15007609,-0.604703037 4.23292126,-0.604703037 1.81410911,1.81410911 C-0.604703037,4.23085743 -0.604703037,8.15213992 1.81410911,10.5688882 L40.7483166,49.5010319 L1.81410911,88.4331756 C-0.604703037,90.8499239 -0.604703037,94.7712064 1.81410911,97.1879547 C3.02351519,98.395297 4.60853885,99 6.19149868,99 C7.7744585,99 9.35948217,98.395297 10.5688882,97.1858909 L49.5030957,58.2537472 L88.4352394,97.1858909 C89.6446455,98.395297 91.2296692,99 92.812629,99 C94.3955888,99 95.9806125,98.395297 97.1900186,97.1858909 C99.6088307,94.7691426 99.6088307,90.8478601 97.1900186,88.4311118 L58.2578749,49.5010319 Z"></path>
        </g>
    </g>
</svg>