<?xml version="1.0" encoding="UTF-8"?>
<svg width="100px" height="100px" viewBox="0 0 100 100" version="1.1" xmlns="http://www.w3.org/2000/svg" xmlns:xlink="http://www.w3.org/1999/xlink">
    <!-- Generator: Sketch 54.1 (76490) - https://sketchapp.com -->
    <title>coin</title>
    <desc>Created with Sketch.</desc>
    <g id="coin" stroke="none" stroke-width="1" fill="none" fill-rule="evenodd">
        <g id="coins" transform="translate(0.500000, 6.000000)" fill-rule="nonzero">
            <path d="M49.0769231,76.1538462 C24.7770769,76.1538462 5.07692308,71.1412308 5.07692308,66 L5.07692308,77.8393846 C5.09046154,82.9772308 24.7838462,88 49.0769231,88 C73.37,88 93.0633846,82.9772308 93.0769231,77.8393846 L93.0769231,66 C93.0769231,71.1412308 73.3767692,76.1538462 49.0769231,76.1538462" id="XMLID_148_" fill="#E4AF18"></path>
            <path d="M44,57.5384615 C19.7001538,57.5384615 0,52.5258462 0,47.3846154 L0,59.224 C0.0135384615,64.3618462 19.7069231,69.3846154 44,69.3846154 C68.2930769,69.3846154 87.9864615,64.3618462 88,59.224 L88,47.3846154 C88,52.5258462 68.2998462,57.5384615 44,57.5384615" id="XMLID_147_" fill="#F4BF1A"></path>
            <path d="M54.1538462,38.9230769 C29.854,38.9230769 10.1538462,33.9104615 10.1538462,28.7692308 L10.1538462,40.6086154 C10.1673846,45.7464615 29.8607692,50.7692308 54.1538462,50.7692308 C78.4469231,50.7692308 98.1403077,45.7464615 98.1538462,40.6086154 L98.1538462,28.7692308 C98.1538462,33.9104615 78.4536923,38.9230769 54.1538462,38.9230769" id="XMLID_146_" fill="#E4AF18"></path>
            <path d="M88,8.68153846 C88,13.8210769 68.2998462,18.6153846 44,18.6153846 C19.7001538,18.6153846 0,13.8210769 0,8.68153846 C0,3.54030769 19.7001538,0 44,0 C68.2998462,0 88,3.54030769 88,8.68153846" id="XMLID_145_" fill="#FFD949"></path>
            <path d="M44,18.6153846 C19.7001538,18.6153846 0,13.6027692 0,8.46153846 L0,20.3009231 C0.0135384615,25.4387692 19.7069231,30.4615385 44,30.4615385 C68.2930769,30.4615385 87.9864615,25.4387692 88,20.3009231 L88,8.46153846 C88,13.6027692 68.2998462,18.6153846 44,18.6153846" id="XMLID_144_" fill="#F4BF1A"></path>
            <path d="M6.76923077,13.6636923 L6.76923077,25.5013846 C7.79815385,25.8804615 8.92523077,26.246 10.1538462,26.5946154 L10.1538462,14.7552308 C8.92523077,14.4066154 7.79815385,14.0410769 6.76923077,13.6636923" id="XMLID_143_" fill="#DCA815"></path>
            <path d="M77.8461538,14.7552308 L77.8461538,26.5946154 C79.0747692,26.246 80.2018462,25.8804615 81.2307692,25.5013846 L81.2307692,13.6636923 C80.2018462,14.0427692 79.0747692,14.4066154 77.8461538,14.7552308" id="XMLID_142_" fill="#DCA815"></path>
            <path d="M15.2307692,15.9838462 L15.2307692,27.8249231 C16.3138462,28.05 17.4426154,28.2632308 18.6153846,28.4646154 L18.6153846,16.6235385 C17.4426154,16.4221538 16.3138462,16.2089231 15.2307692,15.9838462" id="XMLID_141_" fill="#DCA815"></path>
            <path d="M69.3846154,16.6235385 L69.3846154,28.4663077 C70.5573846,28.2632308 71.6861538,28.05 72.7692308,27.8249231 L72.7692308,15.9838462 C71.6861538,16.2089231 70.5573846,16.4221538 69.3846154,16.6235385" id="XMLID_140_" fill="#DCA815"></path>
            <path d="M23.6923077,17.3783077 L23.6923077,29.2210769 C24.7956923,29.3632308 25.9210769,29.4952308 27.0769231,29.6136923 L27.0769231,17.7709231 C25.9210769,17.6524615 24.7956923,17.5187692 23.6923077,17.3783077" id="XMLID_139_" fill="#DCA815"></path>
            <path d="M60.9230769,17.7726154 L60.9230769,29.6153846 C62.0789231,29.4952308 63.2043077,29.3632308 64.3076923,29.2227692 L64.3076923,17.3783077 C63.2043077,17.5221538 62.0789231,17.6541538 60.9230769,17.7726154" id="XMLID_138_" fill="#DCA815"></path>
            <path d="M32.1538462,18.2075385 L32.1538462,30.052 C33.2656923,30.1298462 34.3927692,30.1992308 35.5384615,30.2550769 L35.5384615,18.4089231 C34.3927692,18.3530769 33.2656923,18.2853846 32.1538462,18.2075385" id="XMLID_137_" fill="#DCA815"></path>
            <path d="M52.4615385,18.4089231 L52.4615385,30.2550769 C53.6072308,30.1992308 54.7343077,30.1298462 55.8461538,30.052 L55.8461538,18.2075385 C54.7343077,18.2853846 53.6072308,18.3530769 52.4615385,18.4089231" id="XMLID_136_" fill="#DCA815"></path>
            <path d="M44,18.6153846 C43.4330769,18.6153846 42.8695385,18.6103077 42.3076923,18.6052308 L42.3076923,30.4513846 C42.8695385,30.4564615 43.4330769,30.4615385 44,30.4615385 C44.5669231,30.4615385 45.1304615,30.4564615 45.6923077,30.4513846 L45.6923077,18.6052308 C45.1304615,18.6103077 44.5669231,18.6153846 44,18.6153846" id="XMLID_135_" fill="#DCA815"></path>
            <path d="M16.9230769,33.9713846 L16.9230769,45.8090769 C17.952,46.1881538 19.0790769,46.5536923 20.3076923,46.9023077 L20.3076923,35.0629231 C19.0790769,34.7143077 17.952,34.3487692 16.9230769,33.9713846" id="XMLID_134_" fill="#C49214"></path>
            <path d="M88,35.0629231 L88,46.9023077 C89.2286154,46.5536923 90.3556923,46.1881538 91.3846154,45.8090769 L91.3846154,33.9713846 C90.3556923,34.3504615 89.2286154,34.7143077 88,35.0629231" id="XMLID_133_" fill="#C49214"></path>
            <path d="M25.3846154,36.2915385 L25.3846154,48.1326154 C26.4676923,48.3576923 27.5964615,48.5709231 28.7692308,48.7723077 L28.7692308,36.9312308 C27.5964615,36.7298462 26.4676923,36.5166154 25.3846154,36.2915385" id="XMLID_132_" fill="#C49214"></path>
            <path d="M79.5384615,36.9312308 L79.5384615,48.774 C80.7112308,48.5709231 81.84,48.3576923 82.9230769,48.1326154 L82.9230769,36.2915385 C81.84,36.5166154 80.7112308,36.7298462 79.5384615,36.9312308" id="XMLID_131_" fill="#C49214"></path>
            <path d="M33.8461538,37.6876923 L33.8461538,49.5304615 C34.9495385,49.6726154 36.0749231,49.8046154 37.2307692,49.9230769 L37.2307692,38.0803077 C36.0749231,37.9601538 34.9495385,37.8281538 33.8461538,37.6876923" id="XMLID_130_" fill="#C49214"></path>
            <path d="M71.0769231,38.0786154 L71.0769231,49.9230769 C72.2327692,49.8029231 73.3581538,49.6709231 74.4615385,49.5304615 L74.4615385,37.6876923 C73.3581538,37.8298462 72.2327692,37.9618462 71.0769231,38.0786154" id="XMLID_129_" fill="#C49214"></path>
            <path d="M42.3076923,38.5152308 L42.3076923,50.3596923 C43.4195385,50.4375385 44.5466154,50.5069231 45.6923077,50.5627692 L45.6923077,38.7166154 C44.5466154,38.6607692 43.4195385,38.5930769 42.3076923,38.5152308" id="XMLID_128_" fill="#C49214"></path>
            <path d="M62.6153846,38.7166154 L62.6153846,50.5627692 C63.7610769,50.5069231 64.8881538,50.4375385 66,50.3596923 L66,38.5152308 C64.8881538,38.5930769 63.7610769,38.6607692 62.6153846,38.7166154" id="XMLID_127_" fill="#C49214"></path>
            <path d="M54.1538462,38.9230769 C53.5869231,38.9230769 53.0233846,38.918 52.4615385,38.9129231 L52.4615385,50.7590769 C53.0233846,50.7641538 53.5869231,50.7692308 54.1538462,50.7692308 C54.7207692,50.7692308 55.2843077,50.7641538 55.8461538,50.7590769 L55.8461538,38.9129231 C55.2843077,38.918 54.7207692,38.9230769 54.1538462,38.9230769" id="XMLID_126_" fill="#C49214"></path>
            <path d="M6.76923077,52.5867692 L6.76923077,64.4244615 C7.79815385,64.8035385 8.92523077,65.1673846 10.1538462,65.5176923 L10.1538462,53.6783077 C8.92523077,53.3296923 7.79815385,52.9641538 6.76923077,52.5867692" id="XMLID_125_" fill="#DCA815"></path>
            <path d="M77.8461538,53.6783077 L77.8461538,65.5176923 C79.0747692,65.1690769 80.2018462,64.8035385 81.2307692,64.4244615 L81.2307692,52.5867692 C80.2018462,52.9658462 79.0747692,53.3296923 77.8461538,53.6783077" id="XMLID_124_" fill="#DCA815"></path>
            <path d="M15.2307692,54.9069231 L15.2307692,66.748 C16.3138462,66.9730769 17.4426154,67.1863077 18.6153846,67.3876923 L18.6153846,55.5466154 C17.4426154,55.3452308 16.3138462,55.132 15.2307692,54.9069231" id="XMLID_123_" fill="#DCA815"></path>
            <path d="M69.3846154,55.5466154 L69.3846154,67.3893846 C70.5573846,67.1863077 71.6861538,66.9730769 72.7692308,66.748 L72.7692308,54.9069231 C71.6861538,55.132 70.5573846,55.3452308 69.3846154,55.5466154" id="XMLID_122_" fill="#DCA815"></path>
            <path d="M23.6923077,56.3030769 L23.6923077,68.1458462 C24.7956923,68.288 25.9210769,68.42 27.0769231,68.5384615 L27.0769231,56.6956923 C25.9210769,56.5755385 24.7956923,56.4435385 23.6923077,56.3030769" id="XMLID_121_" fill="#DCA815"></path>
            <path d="M60.9230769,56.694 L60.9230769,68.5384615 C62.0789231,68.4183077 63.2043077,68.2863077 64.3076923,68.1458462 L64.3076923,56.3030769 C63.2043077,56.4452308 62.0789231,56.5772308 60.9230769,56.694" id="XMLID_120_" fill="#DCA815"></path>
            <path d="M32.1538462,57.1306154 L32.1538462,68.9750769 C33.2656923,69.0529231 34.3927692,69.1223077 35.5384615,69.1781538 L35.5384615,57.332 C34.3927692,57.2761538 33.2656923,57.2084615 32.1538462,57.1306154" id="XMLID_119_" fill="#DCA815"></path>
            <path d="M52.4615385,57.332 L52.4615385,69.1781538 C53.6072308,69.1223077 54.7343077,69.0529231 55.8461538,68.9750769 L55.8461538,57.1306154 C54.7343077,57.2084615 53.6072308,57.2761538 52.4615385,57.332" id="XMLID_118_" fill="#DCA815"></path>
            <path d="M44,57.5384615 C43.4330769,57.5384615 42.8695385,57.5333846 42.3076923,57.5283077 L42.3076923,69.3744615 C42.8695385,69.3795385 43.4330769,69.3846154 44,69.3846154 C44.5669231,69.3846154 45.1304615,69.3795385 45.6923077,69.3744615 L45.6923077,57.5283077 C45.1304615,57.5333846 44.5669231,57.5384615 44,57.5384615" id="XMLID_117_" fill="#DCA815"></path>
            <path d="M11.8461538,71.2021538 L11.8461538,83.0398462 C12.8750769,83.4189231 14.0021538,83.7827692 15.2307692,84.1330769 L15.2307692,72.2936923 C14.0021538,71.9450769 12.8750769,71.5795385 11.8461538,71.2021538" id="XMLID_116_" fill="#C49214"></path>
            <path d="M82.9230769,72.2936923 L82.9230769,84.1330769 C84.1516923,83.7844615 85.2787692,83.4189231 86.3076923,83.0398462 L86.3076923,71.2021538 C85.2787692,71.5812308 84.1516923,71.9450769 82.9230769,72.2936923" id="XMLID_115_" fill="#C49214"></path>
            <path d="M20.3076923,73.5223077 L20.3076923,85.3633846 C21.3907692,85.5884615 22.5195385,85.8016923 23.6923077,86.0030769 L23.6923077,74.162 C22.5195385,73.9606154 21.3907692,73.7473846 20.3076923,73.5223077" id="XMLID_114_" fill="#C49214"></path>
            <path d="M74.4615385,74.162 L74.4615385,86.0047692 C75.6343077,85.8016923 76.7630769,85.5884615 77.8461538,85.3633846 L77.8461538,73.5223077 C76.7630769,73.7473846 75.6343077,73.9606154 74.4615385,74.162" id="XMLID_113_" fill="#C49214"></path>
            <path d="M28.7692308,74.9184615 L28.7692308,86.7612308 C29.8726154,86.9033846 30.998,87.0353846 32.1538462,87.1538462 L32.1538462,75.3110769 C30.998,75.1909231 29.8726154,75.0589231 28.7692308,74.9184615" id="XMLID_112_" fill="#C49214"></path>
            <path d="M66,75.3093846 L66,87.1538462 C67.1558462,87.0336923 68.2812308,86.9016923 69.3846154,86.7612308 L69.3846154,74.9184615 C68.2812308,75.0606154 67.1558462,75.1926154 66,75.3093846" id="XMLID_111_" fill="#C49214"></path>
            <path d="M37.2307692,75.746 L37.2307692,87.5904615 C38.3426154,87.6683077 39.4696923,87.7376923 40.6153846,87.7935385 L40.6153846,75.9473846 C39.4696923,75.8915385 38.3426154,75.8238462 37.2307692,75.746" id="XMLID_110_" fill="#C49214"></path>
            <path d="M57.5384615,75.9473846 L57.5384615,87.7935385 C58.6841538,87.7376923 59.8112308,87.6683077 60.9230769,87.5904615 L60.9230769,75.746 C59.8112308,75.8238462 58.6841538,75.8915385 57.5384615,75.9473846" id="XMLID_109_" fill="#C49214"></path>
            <path d="M49.0769231,76.1538462 C48.51,76.1538462 47.9464615,76.1487692 47.3846154,76.1436923 L47.3846154,87.9898462 C47.9464615,87.9949231 48.51,88 49.0769231,88 C49.6438462,88 50.2073846,87.9949231 50.7692308,87.9898462 L50.7692308,76.1436923 C50.2073846,76.1487692 49.6438462,76.1538462 49.0769231,76.1538462" id="XMLID_108_" fill="#C49214"></path>
            <path d="M86.6664615,61.5526154 C81.8603077,65.78 64.5835385,69.3846154 44,69.3846154 C27.9061538,69.3846154 13.838,67.1795385 6.16676923,64.1976923 C5.46107692,64.8373846 5.07692308,65.5143077 5.07692308,66.22 C5.07692308,71.3612308 24.7770769,76.1538462 49.0769231,76.1538462 C73.3784615,76.1538462 93.0769231,71.3612308 93.0769231,66.22 C93.0769231,64.4481538 90.7330769,62.8641538 86.6664615,61.5526154" id="XMLID_107_" fill="#FCC62D"></path>
            <path d="M54.1538462,50.7692308 C31.7933846,50.7692308 13.3421538,46.5130769 10.5363077,41.8287692 C3.97184615,43.3163077 0,45.298 0,47.6046154 C0,52.7441538 19.7001538,57.5384615 44,57.5384615 C68.2998462,57.5384615 88,52.7441538 88,47.6046154 C88,47.3778462 87.9492308,47.1561538 87.8730769,46.9361538 C79.8024615,49.2072308 67.6956923,50.7692308 54.1538462,50.7692308" id="XMLID_106_" fill="#FFD949"></path>
            <path d="M86.2958462,22.9290769 C81.0310769,27.0244615 64.0944615,30.4615385 44,30.4615385 C31.0233846,30.4615385 19.3616923,29.0264615 11.308,26.9076923 C10.5616923,27.5676923 10.1538462,28.2615385 10.1538462,28.9892308 C10.1538462,34.1304615 29.854,38.9230769 54.1538462,38.9230769 C78.4536923,38.9230769 98.1538462,34.1304615 98.1538462,28.9892308 C98.1538462,26.532 93.6472308,24.442 86.2958462,22.9290769" id="XMLID_105_" fill="#FCC62D"></path>
        </g>
    </g>
</svg>