<?xml version="1.0" encoding="UTF-8"?>
<svg width="100px" height="100px" viewBox="0 0 100 100" version="1.1" xmlns="http://www.w3.org/2000/svg" xmlns:xlink="http://www.w3.org/1999/xlink">
    <!-- Generator: Sketch 54.1 (76490) - https://sketchapp.com -->
    <title>coin-single</title>
    <desc>Created with Sketch.</desc>
    <g id="coin-single" stroke="none" stroke-width="1" fill="none" fill-rule="evenodd">
        <g id="coin-(1)" fill-rule="nonzero">
            <g id="Group">
                <path d="M100,50 C100,77.6142857 77.6142857,100 50,100 C35.4428571,100 22.3387755,93.7795918 13.2020408,83.8510204 C10.8020408,81.244898 8.67755102,78.3816327 6.86938776,75.3102041 C2.50408163,67.8857143 0,59.2346939 0,50 C0,22.3857143 22.3857143,0 50,0 C59.2367347,0 67.8877551,2.50408163 75.3102041,6.87142857 C78.3816327,8.67755102 81.2428571,10.8020408 83.8489796,13.2040816 C93.777551,22.3367347 100,35.4428571 100,50 Z" id="Path" fill="#F0CD00"></path>
                <path d="M100,50 C100,76.9918367 78.6142857,98.9877551 51.8612245,99.9653061 C25.1081633,98.9877551 3.72244898,76.9918367 3.72244898,50 C3.72244898,23.0081633 25.1081633,1.0122449 51.8612245,0.0346938776 C78.6142857,1.0122449 100,23.0081633 100,50 Z" id="Path" fill="#FFDE50"></path>
                <path d="M83.8489796,13.2040816 L13.2020408,83.8510204 C10.8020408,81.244898 8.67755102,78.3816327 6.86938776,75.3102041 L75.3102041,6.87142857 C78.3816327,8.67755102 81.2428571,10.8020408 83.8489796,13.2040816 Z" id="Path" fill="#FFEA94"></path>
                <path d="M96.5510204,31.7204082 L31.7183673,96.5530612 C27.1285714,94.7489796 22.8693878,92.2857143 19.0591837,89.2795918 L89.2795918,19.0591837 C92.2857143,22.8693878 94.7489796,27.1285714 96.5510204,31.7204082 Z" id="Path" fill="#FFEA94"></path>
                <path d="M88.8530612,50 C88.8530612,71.4571429 71.4571429,88.8530612 50,88.8530612 C42.5265306,88.8530612 35.5469388,86.7428571 29.622449,83.0857143 C27.0408163,81.4938776 24.6612245,79.6061224 22.5265306,77.4714286 C20.9571429,75.9040816 19.5204082,74.2 18.2367347,72.3816327 C16.4693878,69.877551 14.9897959,67.155102 13.8489796,64.2632653 C12.1591837,59.9877551 11.2081633,55.3387755 11.1510204,50.477551 C11.1469388,50.3183673 11.1469388,50.1591837 11.1469388,50 C11.1469388,28.5428571 28.5408163,11.1469388 50,11.1469388 C50.1591837,11.1469388 50.3204082,11.1469388 50.4795918,11.1510204 C55.3408163,11.2081633 59.9877551,12.1612245 64.2632653,13.8489796 C67.155102,14.9918367 69.877551,16.4693878 72.3816327,18.2367347 C74.2,19.522449 75.9020408,20.9571429 77.4714286,22.5265306 C79.6061224,24.6591837 81.4938776,27.0408163 83.0857143,29.622449 C86.7428571,35.5469388 88.8530612,42.5265306 88.8530612,50 Z" id="Path" fill="#FAA300"></path>
                <path d="M77.4714286,22.5265306 L22.5265306,77.4714286 C20.9571429,75.9040816 19.5204082,74.2 18.2367347,72.3816327 C16.4693878,69.877551 14.9897959,67.155102 13.8489796,64.2632653 C12.1591837,59.9877551 11.2081633,55.3387755 11.1510204,50.477551 C11.1469388,50.3183673 11.1469388,50.1591837 11.1469388,50 C11.1469388,28.5428571 28.5408163,11.1469388 50,11.1469388 C50.1591837,11.1469388 50.3204082,11.1469388 50.4795918,11.1510204 C55.3408163,11.2081633 59.9877551,12.1612245 64.2632653,13.8489796 C67.155102,14.9918367 69.877551,16.4693878 72.3816327,18.2367347 C74.2,19.522449 75.9020408,20.9571429 77.4714286,22.5265306 Z" id="Path" fill="#FFBD00"></path>
                <path d="M88.8520408,50 C88.8520408,71.4571429 71.4561224,88.8530612 49.9989796,88.8530612 C49.2622449,88.8530612 48.5316327,88.8326531 47.805102,88.7918367 C68.2418367,87.655102 84.4622449,70.7204082 84.4622449,50 C84.4622449,29.2795918 68.2418367,12.344898 47.805102,11.2081633 C48.5316327,11.1673469 49.2622449,11.1469388 49.9989796,11.1469388 C71.4561224,11.1469388 88.8520408,28.5428571 88.8520408,50 Z" id="Path" fill="#F68E00"></path>
            </g>
            <path d="M52.0014286,58.38 C62.1710204,58.38 70.4444898,50.1063265 70.4444898,39.9369388 C70.4444898,29.767551 62.1708163,21.4938776 52.0014286,21.4938776 L31.6561224,21.4938776 C29.4018367,21.4938776 27.5744898,23.3212245 27.5744898,25.5755102 L27.5744898,50.2167347 L24.7944898,50.2167347 C22.5402041,50.2167347 20.7128571,52.0440816 20.7128571,54.2983673 C20.7128571,56.5526531 22.5402041,58.38 24.7944898,58.38 L27.5744898,58.38 L27.5744898,63.0744898 L24.7944898,63.0744898 C22.5402041,63.0744898 20.7128571,64.9018367 20.7128571,67.1561224 C20.7128571,69.4104082 22.5402041,71.2377551 24.7944898,71.2377551 L27.5744898,71.2377551 L27.5744898,75.4087755 C27.5744898,77.6630612 29.4018367,79.4904082 31.6561224,79.4904082 C33.9104082,79.4904082 35.7377551,77.6630612 35.7377551,75.4087755 L35.7377551,71.2377551 L50.0142857,71.2377551 C52.2685714,71.2377551 54.0959184,69.4104082 54.0959184,67.1561224 C54.0959184,64.9018367 52.2685714,63.0744898 50.0142857,63.0744898 L35.7377551,63.0744898 L35.7377551,58.38 L52.0014286,58.38 Z M35.7377551,29.6571429 L52.0014286,29.6571429 C57.6697959,29.6571429 62.2812245,34.2685714 62.2812245,39.9369388 C62.2812245,45.605102 57.6697959,50.2167347 52.0014286,50.2167347 L35.7377551,50.2167347 L35.7377551,29.6571429 Z" id="Shape" fill="#F68E00"></path>
            <path d="M57.1038776,58.38 C67.2734694,58.38 75.5469388,50.1063265 75.5469388,39.9369388 C75.5469388,29.767551 67.2732653,21.4938776 57.1038776,21.4938776 L36.7585714,21.4938776 C34.5042857,21.4938776 32.6769388,23.3212245 32.6769388,25.5755102 L32.6769388,50.2167347 L29.8969388,50.2167347 C27.6426531,50.2167347 25.8153061,52.0440816 25.8153061,54.2983673 C25.8153061,56.5526531 27.6426531,58.38 29.8969388,58.38 L32.6769388,58.38 L32.6769388,63.0744898 L29.8969388,63.0744898 C27.6426531,63.0744898 25.8153061,64.9018367 25.8153061,67.1561224 C25.8153061,69.4104082 27.6426531,71.2377551 29.8969388,71.2377551 L32.6769388,71.2377551 L32.6769388,75.4087755 C32.6769388,77.6630612 34.5042857,79.4904082 36.7585714,79.4904082 C39.0128571,79.4904082 40.8402041,77.6630612 40.8402041,75.4087755 L40.8402041,71.2377551 L55.1167347,71.2377551 C57.3710204,71.2377551 59.1983673,69.4104082 59.1983673,67.1561224 C59.1983673,64.9018367 57.3710204,63.0744898 55.1167347,63.0744898 L40.8402041,63.0744898 L40.8402041,58.38 L57.1038776,58.38 Z M40.8402041,29.6571429 L57.1038776,29.6571429 C62.7722449,29.6571429 67.3836735,34.2685714 67.3836735,39.9369388 C67.3836735,45.605102 62.7722449,50.2167347 57.1038776,50.2167347 L40.8402041,50.2167347 L40.8402041,29.6571429 Z" id="Shape" fill="#FFEA94"></path>
        </g>
    </g>
</svg>