<?xml version="1.0" encoding="UTF-8"?>
<svg width="101px" height="100px" viewBox="0 0 101 100" version="1.1" xmlns="http://www.w3.org/2000/svg" xmlns:xlink="http://www.w3.org/1999/xlink">
    <!-- Generator: Sketch 54.1 (76490) - https://sketchapp.com -->
    <title>geopos</title>
    <desc>Created with Sketch.</desc>
    <g id="geopos" stroke="none" stroke-width="1" fill="none" fill-rule="evenodd" transform="translate(1.000000, 0.000000)">
        <g id="gps" fill="#000000" fill-rule="nonzero">
            <path d="M1.72424316,55.1727295 L10.6895447,55.1727295 C13.0455018,72.9591369 27.0408631,86.9544982 44.8272705,89.3104553 L44.8272705,98.2757568 C44.8303223,99.2271424 45.600891,99.9969482 46.5515137,100 L53.4484863,100 C54.399109,99.9969482 55.1696777,99.2271424 55.1727295,98.2757568 L55.1727295,89.3104553 C72.9591369,86.9544982 86.9544982,72.9591369 89.3104553,55.1727295 L98.2757568,55.1727295 C99.2271424,55.1696777 99.9969482,54.399109 100,53.4484863 L100,46.5515137 C99.9969482,45.600891 99.2271424,44.8303223 98.2757568,44.8272705 L89.3104553,44.8272705 C86.9544982,27.0408631 72.9591369,13.0455018 55.1727295,10.6895447 L55.1727295,1.72424316 C55.1696777,0.772857617 54.399109,0.00305175781 53.4484863,0 L46.5515137,0 C45.600891,0.00305175781 44.8303223,0.772857617 44.8272705,1.72424316 L44.8272705,10.6895447 C27.0408631,13.0455018 13.0455018,27.0408631 10.6895447,44.8272705 L1.72424316,44.8272705 C0.772857617,44.8303223 0.00305175781,45.600891 0,46.5515137 L0,53.4484863 C0.00305175781,54.399109 0.772857617,55.1696777 1.72424316,55.1727295 Z M50,20.6893922 C66.1872863,20.6893922 79.3106078,33.8127137 79.3106078,50 C79.3106078,66.1872863 66.1872863,79.3106078 50,79.3106078 C33.8127137,79.3106078 20.6893922,66.1872863 20.6893922,50 C20.7122803,33.8218689 33.8218689,20.7122803 50,20.6893922 Z" id="Shape"></path>
            <path d="M63.7931824,50 C63.7931824,57.6179504 57.6179504,63.7931824 50,63.7931824 C42.3820496,63.7931824 36.2068176,57.6179504 36.2068176,50 C36.2068176,42.3820496 42.3820496,36.2068176 50,36.2068176 C57.6179504,36.2068176 63.7931824,42.3820496 63.7931824,50 L63.7931824,50 Z" id="Path"></path>
        </g>
    </g>
</svg>