<?xml version="1.0" encoding="UTF-8"?>
<svg width="100px" height="100px" viewBox="0 0 100 100" version="1.1" xmlns="http://www.w3.org/2000/svg" xmlns:xlink="http://www.w3.org/1999/xlink">
    <!-- Generator: Sketch 54.1 (76490) - https://sketchapp.com -->
    <title>girl</title>
    <desc>Created with Sketch.</desc>
    <g id="girl" stroke="none" stroke-width="1" fill="none" fill-rule="evenodd">
        <g transform="translate(5.500000, -0.500000)" fill-rule="nonzero">
            <path d="M44.4121662,21.124239 L44.4121662,98.7995327 C44.4121662,98.7995327 0.317975284,103.368668 0.317975284,81.8735384 C0.317975284,81.8735384 12.1617051,83.3663231 9.73684012,73.4882146 C6.66291722,60.9653284 8.38241104,40.6838453 9.73684012,29.5988871 C11.0912692,18.5134434 44.4121662,21.124239 44.4121662,21.124239 Z" id="Path" fill="#330C00"></path>
            <path d="M44.2694414,21.124239 L44.2694414,98.7995327 C44.2694414,98.7995327 88.3636324,103.368668 88.3636324,81.8735384 C88.3636324,81.8735384 76.5199026,83.3663231 78.9447676,73.4882146 C82.0186905,60.9653284 80.2991966,40.6838453 78.9447676,29.5988871 C77.589853,18.5134434 44.2694414,21.124239 44.2694414,21.124239 Z" id="Path" fill="#330C00"></path>
            <path d="M45.1816179,87.2480489 L45.1816179,75.931527 C45.1816179,75.931527 63.1445514,75.387328 63.1445514,86.25917 L45.1816179,87.2480489 Z" id="Path" fill="#00B497"></path>
            <path d="M43.6427146,87.2480489 L43.6427146,75.931527 C43.6427146,75.931527 25.679781,75.387328 25.679781,86.25917 L43.6427146,87.2480489 Z" id="Path" fill="#00B497"></path>
            <g id="Group" transform="translate(9.709169, 15.534670)">
                <g>
                    <rect id="Rectangle" fill="#FDCC9B" x="27.5682144" y="60.3958857" width="14.2700511" height="15.9827485"></rect>
                    <path d="M27.5682144,62.2784935 C27.5682144,62.2784935 33.5704227,66.1009934 41.8382655,65.2160026 L41.8382655,60.3958857 L27.5682144,60.3958857 L27.5682144,62.2784935 Z" id="Path" fill="#FCBC85"></path>
                    <ellipse id="Oval" fill="#FCBC85" cx="6.99060167" cy="35.6132318" rx="6.96293054" ry="7.94404206"></ellipse>
                    <ellipse id="Oval" fill="#FCBC85" cx="62.4144219" cy="35.6132318" rx="6.96293054" ry="7.94404206"></ellipse>
                    <path d="M62.3862653,20.4397425 C62.3862653,8.73825209 53.8242346,0.176706876 34.7029972,0.176706876 C15.5807889,0.176706876 7.01924372,8.73873754 7.01924372,20.4397425 C7.01924372,32.141233 5.0215822,62.9644463 34.7029972,62.9644463 C64.3844123,62.9644463 62.3862653,32.1417185 62.3862653,20.4397425 Z" id="Path" fill="#FDCC9B"></path>
                    <g transform="translate(16.020129, 23.302006)">
                        <g transform="translate(1.941834, 6.796418)" id="Oval">
                            <ellipse fill="#3B2519" cx="3.25694074" cy="3.61278178" rx="2.99673501" ry="3.28218458"></ellipse>
                            <circle fill="#FFFFFF" cx="1.95057205" cy="2.16368831" r="1"></circle>
                        </g>
                        <path d="M0.404872347,3.33267225 C1.82192556,3.87492934 4.09726931,1.48841561 9.30623847,3.56472139 C10.2553097,3.94337898 10.8223252,0.327684453 5.23906758,0.327684453 C0.404872347,0.327684453 -0.451476358,3.00450234 0.404872347,3.33267225 Z" id="Path" fill="#684B37"></path>
                        <g transform="translate(29.127507, 6.796418)" id="Oval">
                            <ellipse fill="#3B2519" cx="3.40937469" cy="3.61278178" rx="2.99673501" ry="3.28218458"></ellipse>
                            <circle fill="#FFFFFF" cx="2.103006" cy="2.16368831" r="1"></circle>
                        </g>
                        <path d="M36.960379,3.33267225 C35.5433258,3.87492934 33.2684675,1.48841561 28.0594984,3.56472139 C27.1104271,3.94337898 26.5434116,0.327684453 32.1266693,0.327684453 C36.960379,0.327684453 37.8167277,3.00450234 36.960379,3.33267225 Z" id="Path" fill="#684B37"></path>
                    </g>
                    <path d="M34.7029972,45.255893 C31.7417007,45.255893 29.9581264,43.0436589 29.9581264,44.1140947 C29.9581264,45.1840452 30.8144751,47.2181161 34.7029972,47.2181161 C38.5915194,47.2181161 39.4473827,45.1845306 39.4473827,44.1140947 C39.4473827,43.0436589 37.6638083,45.255893 34.7029972,45.255893 Z" id="Path" fill="#FCBC85"></path>
                    <path d="M34.7029972,55.0961358 C33.6786799,55.0961358 33.0616622,54.3310533 33.0616622,54.7014581 C33.0616622,55.0718629 33.3577919,55.7752921 34.7029972,55.7752921 C36.0482026,55.7752921 36.3438468,55.0718629 36.3438468,54.7014581 C36.3438468,54.3310533 35.7268291,55.0961358 34.7029972,55.0961358 Z" id="Path" fill="#FCBC85"></path>
                    <path d="M34.7029972,52.3693157 C30.0090995,52.3693157 27.1817895,50.4575803 27.1817895,50.9420678 C27.1817895,51.4260699 28.5391313,53.3324652 34.7029972,53.3324652 C40.8668632,53.3324652 42.224205,51.4260699 42.224205,50.9420678 C42.224205,50.4580658 39.3964095,52.3693157 34.7029972,52.3693157 Z" id="Path" fill="#F7945E"></path>
                </g>
                <circle id="Oval" fill="#F9AA8D" cx="17.3653342" cy="44.2000209" r="4.06668543"></circle>
                <circle id="Oval" fill="#F9AA8D" cx="52.5406825" cy="44.2000209" r="4.06668543"></circle>
            </g>
            <path d="M44.4121662,82.3522004 L44.4121662,100.33261 L13.1617495,100.33261 C13.1617495,93.0551028 28.0017288,82.3522004 44.4121662,82.3522004 Z" id="Path" fill="#8FD6E7"></path>
            <path d="M44.4121662,82.3522004 L44.4121662,100.33261 L75.6620975,100.33261 C75.6620975,93.0551028 60.8226036,82.3522004 44.4121662,82.3522004 Z" id="Path" fill="#8FD6E7"></path>
            <path d="M44.4121662,99.5184966 L44.4121662,82.3522004 C39.840604,82.3522004 35.4064265,83.2027236 31.3659559,84.5581236 L44.4121662,99.5184966 Z" id="Path" fill="#F6B1CF"></path>
            <path d="M44.4121662,99.5184966 L44.4121662,82.3522004 C48.983243,82.3522004 53.4174205,83.2027236 57.4583766,84.5581236 L44.4121662,99.5184966 Z" id="Path" fill="#F6B1CF"></path>
            <path d="M44.4121662,82.3522004 C41.0872613,82.3522004 37.8366315,82.8080459 34.7515431,83.5692447 C35.190883,86.2397517 36.9943611,91.7186357 44.4121662,91.7186357 C51.8294859,91.7186357 53.632964,86.2397517 54.0723039,83.5692447 C50.9877009,82.8075604 47.7370711,82.3522004 44.4121662,82.3522004 Z" id="Path" fill="#F283B4"></path>
            <path d="M37.2773834,82.9745581 C37.2773834,82.9745581 37.2768979,89.4015426 44.4121662,89.4015426 C51.5469491,89.4015426 51.5469491,82.9745581 51.5469491,82.9745581 C51.5469491,82.9745581 44.1441932,80.2792928 37.2773834,82.9745581 Z" id="Path" fill="#FDCC9B"></path>
            <path d="M33.4927493,83.6935221 C33.706351,82.3046255 25.1821861,83.3284574 25.2516067,87.2475634 C25.3219982,91.1666695 34.6699861,94.1818519 37.2385467,95.6090997 C39.8071074,97.0358621 44.3733296,100.332125 44.3733296,100.332125 C44.3733296,100.332125 45.2296783,97.0212984 41.2338698,94.466816 C37.2390322,91.9133046 33.2072998,85.5489443 33.4927493,83.6935221 Z" id="Path" fill="#3ABDAA"></path>
            <path d="M55.2272096,83.6935221 C55.0136078,82.3046255 63.5377728,83.3284574 63.4683522,87.2475634 C63.3979607,91.1666695 54.0499728,94.1818519 51.4814122,95.6090997 C48.9128515,97.0358621 44.3466293,100.332125 44.3466293,100.332125 C44.3466293,100.332125 43.4902806,97.0212984 47.4860891,94.466816 C51.4809267,91.9133046 55.5126591,85.5489443 55.2272096,83.6935221 Z" id="Path" fill="#3ABDAA"></path>
            <path d="M44.4121662,0 C12.3044299,0 8.02365725,28.0337691 8.02365725,48.6929388 C8.02365725,69.3525941 18.7187923,81.3497287 27.0745032,84.7003629 C27.0745032,84.7003629 13.7316777,61.0546528 20.2955614,39.1643604 C25.6661882,21.2538564 44.4121662,26.5424407 44.4121662,26.5424407 C44.4121662,26.5424407 63.1571733,21.2533709 68.5282856,39.1643604 C75.0921693,61.0546528 61.7493438,84.7003629 61.7493438,84.7003629 C70.1055401,81.3497287 80.8006752,69.3525941 80.8006752,48.6929388 C80.8006752,28.0337691 76.5199026,0 44.4121662,0 Z" id="Path" fill="#401900"></path>
            <path d="M55.2694444,31.4887769 C55.2694444,31.4887769 43.2184239,37.5298218 32.5762038,36.3171466 C21.9344691,35.1039859 17.846909,46.1370001 18.4964524,53.4387806 L14.9448384,37.1875736 L21.3664827,24.3302066 L39.6672953,14.9123126 L56.9598108,15.7113773 L65.1606603,22.8320818 L72.1240763,31.4887769 L77.0189539,37.1875736 L74.6639949,54.7252455 L69.6793076,60.7201719 C69.6797931,60.7201719 74.189702,38.2191728 55.2694444,31.4887769 Z" id="Path" fill="#401900"></path>
        </g>
    </g>
</svg>