<?xml version="1.0" encoding="UTF-8"?>
<svg width="100px" height="100px" viewBox="0 0 100 100" version="1.1" xmlns="http://www.w3.org/2000/svg" xmlns:xlink="http://www.w3.org/1999/xlink">
    <!-- Generator: Sketch 54.1 (76490) - https://sketchapp.com -->
    <title>list</title>
    <desc>Created with Sketch.</desc>
    <g id="list" stroke="none" stroke-width="1" fill="none" fill-rule="evenodd">
        <g id="list-(1)" transform="translate(-0.160000, 12.000000)" fill="#000000" fill-rule="nonzero">
            <path d="M95.2432861,73.8622326 L30.456944,73.8622326 C27.7867876,73.8622326 25.6226234,71.3901648 25.6226234,68.3401155 C25.6226234,65.2900661 27.7867876,62.8179983 30.456944,62.8179983 L95.2416747,62.8179983 C97.9118311,62.8179983 100.075995,65.2900661 100.075995,68.3401155 C100.075995,71.3901648 97.9134426,73.8622326 95.2432861,73.8622326 Z" id="Path"></path>
            <path d="M95.2432853,43.5861877 L30.4569439,43.5861877 C27.7867875,43.5861877 25.6226234,41.11412 25.6226234,38.0640706 C25.6226234,35.0140213 27.7867875,32.5419535 30.4569439,32.5419535 L95.2416739,32.5419535 C97.9118303,32.5419535 100.075994,35.0140213 100.075994,38.0640706 C100.077606,41.11412 97.9134417,43.5861877 95.2432853,43.5861877 Z" id="Path"></path>
            <path d="M95.2432861,13.3101429 L30.456944,13.3101429 C27.7867876,13.3101429 25.6226234,10.8380752 25.6226234,7.78802582 C25.6226234,4.73797647 27.7867876,2.26590872 30.456944,2.26590872 L95.2416747,2.26590872 C97.9118311,2.26590872 100.075995,4.73797647 100.075995,7.78802582 C100.075995,10.8380752 97.9134426,13.3101429 95.2432861,13.3101429 Z" id="Path"></path>
            <circle id="Oval" cx="7.41620327" cy="8.21506954" r="7.41620327"></circle>
            <circle id="Oval" cx="7.41620327" cy="38.0640706" r="7.41620327"></circle>
            <circle id="Oval" cx="7.41620327" cy="67.9130717" r="7.41620327"></circle>
        </g>
    </g>
</svg>