<?xml version="1.0" encoding="UTF-8"?>
<svg width="100px" height="100px" viewBox="0 0 100 100" version="1.1" xmlns="http://www.w3.org/2000/svg" xmlns:xlink="http://www.w3.org/1999/xlink">
    <!-- Generator: Sketch 54.1 (76490) - https://sketchapp.com -->
    <title>man</title>
    <desc>Created with Sketch.</desc>
    <g id="man" stroke="none" stroke-width="1" fill="none" fill-rule="evenodd">
        <g id="boy" transform="translate(13.500000, -0.500000)" fill-rule="nonzero">
            <g id="Group" transform="translate(0.000000, 12.180905)">
                <rect id="Rectangle" fill="#FDCC9B" x="29.208794" y="63.0519146" width="14.9190704" height="16.7091558"></rect>
                <path d="M29.2093015,65.0196382 C29.2093015,65.0196382 35.485005,69.0159899 44.1283719,68.0902412 L44.1283719,63.051407 L29.2093015,63.051407 L29.2093015,65.0196382 Z" id="Path" fill="#FCBC85"></path>
                <ellipse id="Oval" fill="#FCBC85" cx="7.69630151" cy="37.1421156" rx="7.27961307" ry="8.30534673"></ellipse>
                <ellipse id="Oval" fill="#FCBC85" cx="65.6408643" cy="37.1421156" rx="7.27961307" ry="8.30534673"></ellipse>
                <path d="M65.6114271,21.2785176 C65.6114271,9.04533668 56.6599849,0.0933869347 36.6685829,0.0933869347 C16.6771809,0.0933869347 7.72573869,9.04482915 7.72573869,21.2785176 C7.72573869,33.512206 5.63722111,65.7372965 36.6685829,65.7372965 C67.6999447,65.7372965 65.6114271,33.512206 65.6114271,21.2785176 Z" id="Path" fill="#FDCC9B"></path>
                <g transform="translate(16.748744, 22.331658)">
                    <g transform="translate(2.537688, 9.135678)" id="Oval">
                        <ellipse fill="#3B2519" cx="3.28478392" cy="3.68573869" rx="3.13303015" ry="3.43146231"></ellipse>
                        <circle fill="#FFFFFF" cx="1.919" cy="2.17073869" r="1"></circle>
                    </g>
                    <path d="M0.810537688,4.31762312 C2.2920402,5.05862814 4.67086935,1.80023618 10.1162412,4.63483417 C11.1089849,5.15150754 11.7012814,0.21519598 5.86459799,0.21519598 C0.810537688,0.21519598 -0.084758794,3.87048241 0.810537688,4.31762312 Z" id="Path" fill="#51362A"></path>
                    <g transform="translate(30.959799, 9.135678)" id="Oval">
                        <ellipse fill="#3B2519" cx="3.44415075" cy="3.68573869" rx="3.13303015" ry="3.43146231"></ellipse>
                        <circle fill="#FFFFFF" cx="2.07836683" cy="2.17073869" r="1"></circle>
                    </g>
                    <path d="M39.0291407,4.31762312 C37.5476382,5.05862814 35.168809,1.80023618 29.7234372,4.63483417 C28.7306935,5.15150754 28.138397,0.21519598 33.9755879,0.21519598 C39.0291407,0.21519598 39.9239296,3.87048241 39.0291407,4.31762312 Z" id="Path" fill="#51362A"></path>
                </g>
                <path d="M36.6685829,47.2228291 C33.572603,47.2228291 31.7079095,44.9104874 31.7079095,46.0291005 C31.7079095,47.1482211 32.603206,49.2742965 36.6685829,49.2742965 C40.7339598,49.2742965 41.6292563,47.1482211 41.6292563,46.0291005 C41.6292563,44.9099799 39.7640553,47.2228291 36.6685829,47.2228291 Z" id="Path" fill="#FCBC85"></path>
                <path d="M36.6685829,57.5106181 C35.5976784,57.5106181 34.952598,56.7107387 34.952598,57.0979899 C34.952598,57.4852412 35.262196,58.2201558 36.6685829,58.2201558 C38.0749698,58.2201558 38.3840603,57.4852412 38.3840603,57.0979899 C38.3840603,56.7107387 37.7389799,57.5106181 36.6685829,57.5106181 Z" id="Path" fill="#FCBC85"></path>
                <path d="M36.6685829,54.6597789 C31.7617085,54.6597789 28.8053015,52.661603 28.8053015,53.1681256 C28.8053015,53.6746482 30.2243769,55.6672412 36.6685829,55.6672412 C43.1127889,55.6672412 44.5318643,53.6746482 44.5318643,53.1681256 C44.5313568,52.661603 41.5754573,54.6597789 36.6685829,54.6597789 Z" id="Path" fill="#F7945E"></path>
            </g>
            <path d="M36.6685829,81.9460201 L36.6685829,100.744201 L0.416688442,100.744201 C0.416688442,93.135196 19.5117789,81.9460201 36.6685829,81.9460201 Z" id="Path" fill="#F7941E"></path>
            <path d="M36.6685829,81.9460201 L36.6685829,100.744201 L72.9204774,100.744201 C72.9204774,93.135196 53.8253869,81.9460201 36.6685829,81.9460201 Z" id="Path" fill="#F7941E"></path>
            <path d="M36.6685829,81.9460201 C33.0193869,81.9460201 29.2828945,82.4560955 25.660598,83.3265226 C25.6849598,83.3584975 29.6782663,88.5105126 36.6685829,88.5105126 C43.1417186,88.5105126 47.4451307,84.0984874 48.0688945,83.4199095 C44.3242814,82.490608 40.4497387,81.9460201 36.6685829,81.9460201 Z" id="Path" fill="#F36C21"></path>
            <path d="M29.208794,82.5966834 C29.208794,82.5966834 31.3906985,85.3028744 36.6680754,85.3028744 C41.9454523,85.3028744 44.1278643,82.5966834 44.1278643,82.5966834 C44.1278643,82.5966834 36.3889296,79.7793417 29.208794,82.5966834 Z" id="Path" fill="#FDCC9B"></path>
            <path d="M60.4639799,9.66402513 C60.4639799,9.66402513 49.7224523,-3.98670854 27.3968844,1.16023116 C5.07182412,6.30666332 3.3989799,19.7340804 4.07045226,32.797593 C4.74192462,45.8616131 6.53201005,53.5254322 8.64945729,52.5783668 C10.7669045,51.630794 9.6650402,43.0077286 9.88886432,41.0176734 C10.1126884,39.0276181 12.126598,30.0279598 25.7047538,31.3709045 C39.282402,32.7138492 50.7243317,27.7902261 50.7243317,27.7902261 C50.7243317,27.7902261 55.3302362,33.612191 58.3612513,34.7277588 C64.418206,36.9563568 62.4317035,51.8165528 64.8049497,51.8165528 C67.178196,51.8165528 78.8145126,17.4963467 60.4639799,9.66402513 Z" id="Path" fill="#51362A"></path>
        </g>
    </g>
</svg>