<?xml version="1.0" encoding="UTF-8"?>
<svg width="100px" height="100px" viewBox="0 0 100 100" version="1.1" xmlns="http://www.w3.org/2000/svg" xmlns:xlink="http://www.w3.org/1999/xlink">
    <!-- Generator: Sketch 54.1 (76490) - https://sketchapp.com -->
    <title>map</title>
    <desc>Created with Sketch.</desc>
    <g id="map" stroke="none" stroke-width="1" fill="none" fill-rule="evenodd">
        <g transform="translate(0.000000, 5.000000)" fill-rule="nonzero">
            <g id="Group" transform="translate(25.439507, 31.847932)" fill="#44C868">
                <path d="M73.9646864,55.2843206 L66.1533984,12.248637 C66.0755263,11.8190783 65.8090912,11.4470013 65.4273044,11.2347465 L45.7666437,0.299642435 C45.5114719,0.157491909 45.2254231,0.100981248 44.9444233,0.122731056 L48.5212957,46.2649473 L48.4014775,46.3185451 L71.9308852,56.8743868 C72.1223612,56.9600267 72.3258772,57.0023612 72.5284223,57.0023612 C72.8490378,57.0023612 73.1667403,56.8969134 73.4279322,56.6924264 C73.8547722,56.3591883 74.0612011,55.8169967 73.9646864,55.2843206 Z" id="Path"></path>
                <path d="M24.2743386,10.753532 L4.16644747,0.280417159 C3.92545184,0.154773183 3.65823992,0.10350578 3.39510609,0.121177498 C3.46482199,0.116905214 3.53492628,0.117293604 3.60444798,0.122731056 L0.0275756486,46.2649473 L23.6768014,56.874581 C23.8676948,56.9600267 24.0714051,57.0025554 24.2743386,57.0025554 L24.2743386,57.0025554 L24.2743386,10.753532 L24.2743386,10.753532 Z" id="Path"></path>
            </g>
            <g id="Group" transform="translate(0.000000, 31.847932)" fill="#4CE166">
                <path d="M29.0437606,0.12292525 C28.7627609,0.101175443 28.476712,0.157686103 28.2215402,0.299642435 L8.56068533,11.2347465 C8.17889854,11.4470013 7.9124634,11.8188842 7.83459132,12.248637 L0.0234975597,55.2843206 C-0.0732114051,55.8168025 0.133411765,56.3589941 0.560057539,56.6926206 C0.821637811,56.8971076 1.13914616,57.0025554 1.45956743,57.0025554 C1.66211251,57.0025554 1.86582276,56.9604151 2.05710455,56.874581 L25.4583437,46.3762209 L29.0437606,0.12292525 Z" id="Path"></path>
                <path d="M70.3837359,0.121954277 C70.190318,0.136907269 69.9990362,0.188368867 69.8217365,0.280805548 L49.7138454,10.7537262 L49.7138454,57.0027496 C49.7138454,57.0027496 49.7138454,57.0027496 49.7138454,57.0027496 C49.916973,57.0027496 50.1208775,56.9604151 50.3115767,56.8747752 L73.9608025,46.2651415 L70.3837359,0.121954277 Z" id="Path"></path>
            </g>
            <polygon id="Path" fill="#FFDB56" points="5.46735782 57.1384917 3.88059286 65.8809432 27.3769874 53.4707362 27.9224803 46.4333142 28.0129751 45.266204"></polygon>
            <path d="M27.5884655,50.7419122 L27.3769874,53.4707362 L3.88059286,65.8809432 L0.0234975597,87.1322528 C-0.0732114051,87.6647347 0.133411765,88.2069263 0.560057539,88.5405528 C0.821637811,88.7450398 1.13914616,88.8504875 1.45956743,88.8504875 C1.66211251,88.8504875 1.86582276,88.8083473 2.05710455,88.7225132 L25.4583437,78.2241531 L27.5884655,50.7419122 L27.5884655,50.7419122 Z" id="Path" fill="#A8EEFC"></path>
            <g id="Group" transform="translate(27.187259, 36.896995)" fill="#FFBB24">
                <polygon id="Path" points="22.532412 11.4730234 0.8257159 8.36920935 0.18972823 16.5737416 22.5265862 50.4954791 22.5265862 38.1606196 9.19764398 17.1724439 22.532412 18.767365"></polygon>
                <polygon id="Path" points="62.1318202 5.3250131 52.6871605 0.0718520421 43.7460478 2.16099872 43.8579039 3.60503057 44.2995027 9.30153815"></polygon>
            </g>
            <polygon id="Path" fill="#FFDB56" points="72.2796589 56.4283216 71.4329699 45.5050634 71.4329699 45.5050634 70.933307 39.0579933 49.7196712 48.370018 49.7196712 55.6643596 63.5766288 49.6384978"></polygon>
            <path d="M99.4041932,87.1322528 L97.442244,76.3222101 L71.4867619,46.1985328 L72.2798531,56.4283216 L98.8981218,88.5133655 C99.3028235,88.1779913 99.4983776,87.6513352 99.4041932,87.1322528 Z" id="Path" fill="#FFBB24"></path>
            <path d="M49.807253,0.0903005394 C38.5511451,0.0903005394 29.3935053,9.24036681 29.3935053,20.4873475 C29.3935053,27.4445672 32.6965631,34.9140724 39.2112129,42.688075 C43.9959764,48.397982 48.7156846,52.0703982 48.9143457,52.2240062 C49.1772854,52.427328 49.4922692,52.5288919 49.8074472,52.5288919 C50.122431,52.5288919 50.437609,52.427328 50.7005487,52.2240062 C50.8990157,52.0703982 55.6189181,48.397982 60.4036815,42.688075 C66.9183314,34.9140724 70.2213892,27.4447614 70.2213892,20.4873475 C70.2210008,9.24036681 61.0633609,0.0903005394 49.807253,0.0903005394 Z M57.367253,20.4871534 C57.367253,24.6588441 53.9824392,28.0409391 49.807253,28.0409391 C45.6320668,28.0409391 42.247253,24.6590383 42.247253,20.4871534 C42.247253,16.3152684 45.6320668,12.9333676 49.807253,12.9333676 C53.9824392,12.9333676 57.367253,16.3154626 57.367253,20.4871534 Z" id="Shape" fill="#FF4A4A"></path>
            <path d="M49.807253,0.0903005394 C48.9151225,0.0903005394 48.0363915,0.148170563 47.174167,0.259638325 C57.1913126,1.55433445 64.9550229,10.1317205 64.9550229,20.4873475 C64.9550229,27.4445672 61.6519651,34.9140724 55.1373152,42.688075 C52.0603,46.3599086 49.0124141,49.1871893 47.1743612,50.7799743 C48.1946602,51.6639486 48.8436589,52.1692433 48.9143457,52.2240062 C49.1772854,52.427328 49.4922692,52.5288919 49.8074472,52.5288919 C50.122431,52.5288919 50.437609,52.427328 50.7005487,52.2240062 C50.8990157,52.0703982 55.6189181,48.397982 60.4036815,42.688075 C66.9183314,34.9140724 70.2213892,27.4447614 70.2213892,20.4873475 C70.2210008,9.24036681 61.0633609,0.0903005394 49.807253,0.0903005394 Z" id="Path" fill="#E7343F"></path>
            <path d="M50.3115767,88.7225132 L59.105684,84.7772535 L49.7138454,75.0576142 L49.7138454,88.8504875 C49.7138454,88.8504875 49.7138454,88.8504875 49.7140396,88.8504875 C49.916973,88.8504875 50.1206833,88.8083473 50.3115767,88.7225132 Z" id="Path" fill="#FFDB56"></path>
            <g id="Group" transform="translate(25.439507, 42.140252)" fill="#1EA4E9">
                <path d="M66.1532042,1.95631749 C66.0753321,1.5267588 65.808897,1.15468174 65.4271102,0.94242692 L63.8793784,0.0815617775 L46.0470609,4.05808682 L46.0470609,4.05808682 L72.0023488,34.1817642 L66.1532042,1.95631749 Z" id="Path"></path>
                <path d="M24.27429,46.7102358 C24.27429,46.7102358 24.27429,46.7102358 24.27429,46.7102358 L24.2741444,45.2522219 L1.93748061,11.3304845 L0.0271872592,35.972822 L23.676413,46.5824557 C23.8673064,46.6680956 24.0710167,46.7102358 24.27429,46.7102358 Z" id="Path"></path>
            </g>
        </g>
    </g>
</svg>