<?xml version="1.0" encoding="UTF-8"?>
<svg width="100px" height="100px" viewBox="0 0 100 100" version="1.1" xmlns="http://www.w3.org/2000/svg" xmlns:xlink="http://www.w3.org/1999/xlink">
    <!-- Generator: Sketch 54.1 (76490) - https://sketchapp.com -->
    <title>pencil</title>
    <desc>Created with Sketch.</desc>
    <g id="pencil" stroke="none" stroke-width="1" fill="none" fill-rule="evenodd">
        <g id="edit-(1)" fill-rule="nonzero">
            <path d="M74.0778912,4.38316327 C79.9221088,-1.46105442 89.3993197,-1.46105442 95.2435374,4.38316327 C101.087755,10.227381 101.087755,19.7045918 95.2435374,25.5488095 L74.0778912,4.38316327 Z" id="Path" fill="#D75A4A"></path>
            <polygon id="Path" fill="#ED8A19" points="79.3683673 33.4845238 30.8897959 81.964966 29.8982993 90.8940476 83.3380952 37.452381 83.3380952 37.452381"></polygon>
            <polygon id="Path" fill="#ED8A19" points="19.3154762 80.3112245 28.2445578 79.3197279 76.7231293 30.8392857 68.787415 22.9035714 20.3069728 71.3821429"></polygon>
            <polygon id="Path" fill="#ED8A19" points="66.1421769 20.2583333 62.172449 16.2886054 62.172449 16.2886054 8.73265306 69.7284014 17.6617347 68.7369048"></polygon>
            <polygon id="Path" fill="#C7CAC7" points="91.2738095 29.5166667 91.2738095 29.5166667 95.2435374 25.5488095 74.0778912 4.38316327 70.1081633 8.35289116 70.110034 8.35289116"></polygon>
            <polygon id="Path" fill="#C7CAC7" points="67.4629252 10.9981293 67.4629252 10.9981293 64.8176871 13.6433673 64.8176871 13.6433673 85.9833333 34.8071429 85.9833333 34.8071429 88.6285714 32.1619048 88.6285714 32.1619048"></polygon>
            <path d="M26.9836735,83.2258503 L17.4017007,84.2903061 C17.3343537,84.2977891 17.2651361,84.3015306 17.1977891,84.3015306 C17.1977891,84.3015306 17.1959184,84.3015306 17.1959184,84.3015306 L17.1959184,84.3015306 L17.1959184,84.3015306 C17.1940476,84.3015306 17.1940476,84.3015306 17.1940476,84.3015306 C17.1267007,84.3015306 17.057483,84.2977891 16.9901361,84.2903061 C16.9171769,84.2828231 16.8573129,84.2416667 16.7880952,84.2248299 C16.6534014,84.1930272 16.5243197,84.1593537 16.4008503,84.0994898 C16.3073129,84.0545918 16.2268707,84.0003401 16.1426871,83.9423469 C16.0360544,83.867517 15.9387755,83.7870748 15.8489796,83.6916667 C15.7778912,83.6168367 15.719898,83.5401361 15.6619048,83.4540816 C15.5908163,83.347449 15.5328231,83.2370748 15.4841837,83.1154762 C15.4430272,83.0144558 15.4130952,82.9153061 15.3906463,82.8068027 C15.377551,82.7469388 15.3457483,82.6964286 15.3382653,82.6346939 C15.3307823,82.5636054 15.3569728,82.4981293 15.3569728,82.4289116 C15.3569728,82.3578231 15.3307823,82.2942177 15.3382653,82.2231293 L16.4027211,72.6411565 L6.8207483,73.7056122 C6.75153061,73.7130952 6.68044218,73.7168367 6.61309524,73.7168367 C6.46530612,73.7168367 6.3287415,73.6719388 6.18843537,73.6382653 L0.826870748,96.1545918 L4.76666667,92.2147959 C5.49812925,91.4833333 6.68044218,91.4833333 7.41190476,92.2147959 C8.14336735,92.9462585 8.14336735,94.1285714 7.41190476,94.860034 L3.47210884,98.7998299 L25.9772109,93.4420068 C25.9285714,93.2380952 25.8967687,93.0267007 25.9210884,92.8078231 L26.9836735,83.2258503 Z" id="Path" fill="#FBCE9D"></path>
            <path d="M7.41190476,92.2147959 C6.68044218,91.4833333 5.49812925,91.4833333 4.76666667,92.2147959 L0.826870748,96.1545918 L0,99.6267007 L3.47210884,98.7998299 L7.41190476,94.860034 C8.1414966,94.1285714 8.1414966,92.9462585 7.41190476,92.2147959 Z" id="Path" fill="#38454F"></path>
            <polygon id="Path" fill="#F2ECBF" points="91.2738095 29.5166667 70.110034 8.35289116 70.1081633 8.35289116 67.4629252 10.9981293 67.4629252 10.9981293 88.6285714 32.1619048 88.6285714 32.1619048"></polygon>
            <path d="M76.7231293,30.8392857 L28.2445578,79.3197279 L19.3154762,80.3112245 L20.3069728,71.3821429 L68.787415,22.9035714 L66.1421769,20.2583333 L17.6617347,68.7369048 L8.73265306,69.7284014 L6.61309524,71.8479592 L6.18656463,73.6382653 C6.32687075,73.6719388 6.46156463,73.7168367 6.61122449,73.7168367 C6.67857143,73.7168367 6.74965986,73.7130952 6.81887755,73.7056122 L16.4008503,72.6411565 L15.3363946,82.2231293 C15.3289116,82.2942177 15.355102,82.3596939 15.355102,82.4289116 C15.355102,82.5 15.3289116,82.5636054 15.3363946,82.6346939 C15.3438776,82.6964286 15.3756803,82.7469388 15.3887755,82.8068027 C15.4112245,82.9134354 15.4430272,83.0163265 15.4823129,83.1154762 C15.5309524,83.2352041 15.5889456,83.347449 15.660034,83.4540816 C15.7161565,83.5382653 15.7778912,83.6187075 15.8471088,83.6916667 C15.935034,83.7852041 16.0341837,83.867517 16.1408163,83.9423469 C16.2231293,84.0003401 16.3073129,84.0564626 16.3989796,84.0994898 C16.5205782,84.157483 16.6515306,84.1930272 16.7862245,84.2248299 C16.8573129,84.2416667 16.9153061,84.2809524 16.9882653,84.2903061 C17.0556122,84.2977891 17.1229592,84.3015306 17.1921769,84.3015306 L17.1940476,84.3015306 L17.1940476,84.3015306 L17.1959184,84.3015306 L17.1977891,84.3015306 C17.1977891,84.3015306 17.1996599,84.3015306 17.1996599,84.3015306 L17.1996599,84.3015306 C17.2651361,84.3015306 17.3343537,84.2977891 17.4035714,84.2903061 L26.9855442,83.2258503 L25.9210884,92.8078231 C25.8967687,93.0285714 25.9285714,93.2380952 25.9772109,93.4420068 L27.7787415,93.0136054 L29.8982993,90.8959184 L30.8897959,81.9668367 L79.3683673,33.4863946 L76.7231293,30.8392857 Z" id="Path" fill="#EBBA16"></path>
            <polygon id="Path" fill="#F2ECBF" points="85.9833333 34.8071429 64.8176871 13.6433673 64.8176871 13.6433673 62.172449 16.2886054 62.172449 16.2886054 66.1421769 20.2583333 68.787415 22.9035714 76.7231293 30.8392857 79.3683673 33.4845238 83.3380952 37.452381 83.3380952 37.452381"></polygon>
        </g>
    </g>
</svg>