<?xml version="1.0" encoding="UTF-8"?>
<svg width="101px" height="100px" viewBox="0 0 101 100" version="1.1" xmlns="http://www.w3.org/2000/svg" xmlns:xlink="http://www.w3.org/1999/xlink">
    <!-- Generator: Sketch 54.1 (76490) - https://sketchapp.com -->
    <title>phone</title>
    <desc>Created with Sketch.</desc>
    <g id="phone" stroke="none" stroke-width="1" fill="none" fill-rule="evenodd" transform="translate(1.000000, 0.000000)">
        <g id="call-answer" fill="#000000" fill-rule="nonzero">
            <path d="M97.2027383,78.9298677 L81.8470449,63.537663 C78.7884753,60.4844744 73.7234246,60.5772382 70.5583036,63.7506762 L62.8220393,71.5027517 C62.3332737,71.2327633 61.8273685,70.9507499 61.2954682,70.651558 C56.4100982,67.9385034 49.7236371,64.219935 42.6875272,57.162729 C35.6305642,50.0906349 31.9169745,43.3787164 29.2017691,38.4791275 C28.9152514,37.9600511 28.6407314,37.4595847 28.3696393,36.9843134 L33.5618091,31.7881094 L36.1144735,29.2265117 C39.2844508,26.0484928 39.371863,20.9733971 36.3204349,17.911333 L20.9647415,2.51741053 C17.9133134,-0.540358962 12.8459774,-0.447595168 9.67600012,2.73042369 L5.34823982,7.09289876 L5.46650337,7.21057135 C4.01534678,9.06641984 2.80271691,11.2068585 1.90031462,13.5150736 C1.06847053,15.7122012 0.550567594,17.8088348 0.313754835,19.9097629 C-1.71386514,36.7572712 5.96755232,52.1546294 26.8139309,73.0485286 C55.6299587,101.927844 78.851892,99.7461775 79.8537042,99.6396709 C82.035581,99.3782717 84.1266177,98.8557596 86.251648,98.0286158 C88.5346487,97.1347622 90.6688201,95.9211025 92.5193304,94.4698073 L92.6138841,94.5539818 L96.9982052,90.2510588 C100.161612,87.0736126 100.252738,81.996799 97.2027383,78.9298677 Z" id="Path"></path>
        </g>
    </g>
</svg>