<?xml version="1.0" encoding="UTF-8"?>
<svg width="100px" height="100px" viewBox="0 0 100 100" version="1.1" xmlns="http://www.w3.org/2000/svg" xmlns:xlink="http://www.w3.org/1999/xlink">
    <!-- Generator: Sketch 54.1 (76490) - https://sketchapp.com -->
    <title>pin</title>
    <desc>Created with Sketch.</desc>
    <g id="pin" stroke="none" stroke-width="1" fill="none" fill-rule="evenodd">
        <g id="icon" fill="#000000" fill-rule="nonzero">
            <path d="M35.3059483,63.9847414 C33.1852586,61.8569828 31.2200862,59.7044828 29.4528448,57.5837931 C29.0463793,57.0783621 28.4101724,56.8026724 27.7881034,56.8380172 C27.1306897,56.8733621 26.5368966,57.2056034 26.2011207,57.7428448 L0.335775862,96.7105172 C-0.194396552,97.5234483 -0.0848275862,98.6085345 0.597327586,99.2906897 C0.989655172,99.6759483 1.50922414,99.8703448 2.02525862,99.8703448 C2.42465517,99.8703448 2.82758621,99.7749138 3.16336207,99.5381034 L42.0497414,73.4925 C42.5657759,73.1461207 42.9121552,72.5452586 42.9475,71.9125862 C42.9899138,71.2551724 42.7000862,70.6366379 42.2017241,70.219569 C39.8018103,68.2756034 37.4796552,66.1796552 35.3059483,63.9847414 Z" id="Path"></path>
            <path d="M98.6862931,23.4760345 C97.0356897,19.1392241 93.8193103,14.4525 89.6309483,10.257069 C83.3112931,3.93741379 76.0656034,0.0176724138 70.7285345,0.0176724138 C68.6078448,0.0176724138 66.822931,0.668017241 65.5858621,1.89448276 C64.165,3.32241379 63.5358621,5.43603448 63.7373276,7.82534483 C63.6737069,9.20732759 41.5902586,26.8019828 39.5084483,26.7206897 C33.9734483,25.0488793 29.5624138,25.5931897 26.9115517,28.2581897 C20.9806897,34.1819828 26.0632759,48.5390517 38.4622414,60.9309483 C47.1393966,69.6010345 57.0394828,74.9875862 64.3346552,74.9875862 C67.1587069,74.9875862 69.5268103,74.1322414 71.1491379,72.5099138 C73.3440517,70.307931 74.1039655,66.939569 73.3581897,62.7017241 C73.3723276,62.5992241 73.3793966,62.5002586 73.3793966,62.4048276 C73.3793966,62.1786207 73.3440517,61.9700862 73.2556897,61.7898276 C73.1319828,60.2912069 90.4226724,36.2213793 91.9778448,36.1648276 C92.2747414,36.1931034 92.5575,36.2072414 92.8402586,36.2072414 C94.9998276,36.2072414 96.7352586,35.5639655 97.997069,34.3021552 C100.252069,32.0542241 100.503017,28.2051724 98.6862931,23.4760345 Z" id="Path"></path>
        </g>
    </g>
</svg>