<?xml version="1.0" encoding="UTF-8"?>
<svg width="100px" height="100px" viewBox="0 0 100 100" version="1.1" xmlns="http://www.w3.org/2000/svg" xmlns:xlink="http://www.w3.org/1999/xlink">
    <!-- Generator: Sketch 54.1 (76490) - https://sketchapp.com -->
    <title>point</title>
    <desc>Created with Sketch.</desc>
    <g id="point" stroke="none" stroke-width="1" fill="none" fill-rule="evenodd">
        <g id="maps-and-flags" transform="translate(11.132812, 0.000000)" fill-rule="nonzero">
            <path d="M77.7046875,38.8375 C77.7046875,69.9361328 42.5970703,98.7376953 42.5970703,98.7376953 C40.5457031,100.420703 37.1884766,100.420703 35.1371094,98.7376953 C35.1371094,98.7376953 0.0294921875,69.9361328 0.0294921875,38.8375 C0.0298828125,17.3880859 17.4179688,0 38.8671875,0 C60.3164062,0 77.7046875,17.3880859 77.7046875,38.8375 Z" id="Path" fill="#EE3840"></path>
            <path d="M38.8671875,58.3769531 C28.0929688,58.3769531 19.3279297,49.6115234 19.3279297,38.8376953 C19.3279297,28.0638672 28.0933594,19.2980469 38.8671875,19.2980469 C49.6410156,19.2980469 58.4064453,28.0634766 58.4064453,38.8373047 C58.4064453,49.6111328 49.6414062,58.3769531 38.8671875,58.3769531 Z" id="Path" fill="#FFE1D6"></path>
        </g>
    </g>
</svg>