<?xml version="1.0" encoding="UTF-8"?>
<svg width="101px" height="100px" viewBox="0 0 101 100" version="1.1" xmlns="http://www.w3.org/2000/svg" xmlns:xlink="http://www.w3.org/1999/xlink">
    <!-- Generator: Sketch 54.1 (76490) - https://sketchapp.com -->
    <title>rotate</title>
    <desc>Created with Sketch.</desc>
    <g id="rotate" stroke="none" stroke-width="1" fill="none" fill-rule="evenodd" transform="translate(0.000000, 0.000000)">
        <g id="arrow" fill="#000000" fill-rule="nonzero">
            <path d="M94.4918699,57.8065041 C94.5026423,57.8065041 94.5132114,57.8073171 94.5237805,57.8073171 L94.5349593,57.8073171 L94.4918699,57.8065041 Z" id="Path"></path>
            <path d="M98.3747967,59.4471545 C97.3457317,58.4134146 95.9721545,57.8160569 94.5237805,57.8073171 L67.1682927,57.8073171 C64.1552846,57.8073171 61.7463415,60.3073171 61.7463415,63.3195122 L61.7463415,67.9495935 C61.7463415,69.404065 62.295122,70.7747967 63.3292683,71.8097561 C64.3634146,72.8447154 65.7243902,73.4146341 67.1788618,73.4146341 L75.1162602,73.4162602 C68.6,80.3943089 59.5308943,84.3642276 49.9796748,84.3642276 C31.0325203,84.3642276 15.6154472,68.9487805 15.6154472,50 C15.6154472,31.0512195 31.0300813,15.6357724 49.9780488,15.6357724 C64.1642276,15.6357724 77.0788618,24.5422764 82.1138211,37.798374 C83.2585366,40.8097561 86.1926829,42.8341463 89.4138211,42.8341463 C90.3609756,42.8341463 91.2934959,42.6617886 92.1845528,42.3219512 C96.2089431,40.7943089 98.2382114,36.2756098 96.7089431,32.2520325 C89.3845528,12.9756098 70.604878,0.0227642276 49.9772358,0.0227642276 C22.4203252,0.0227642276 0,22.4422764 0,50 C0,77.5577236 22.4056911,99.9772358 49.9626016,99.9772358 C62.6829268,99.9772358 75.0178862,94.9707317 84.3861789,86.1821138 L84.3861789,90.6105691 C84.3861789,93.6235772 86.8674797,96.0601626 89.8804878,96.0601626 L94.5105691,96.0601626 C97.5235772,96.0601626 100,93.6235772 100,90.6105691 L100,63.3382114 C100,61.8788618 99.4138211,60.4804878 98.3747967,59.4471545 Z" id="Path" transform="translate(50.000000, 50.000000) rotate(-180.000000) translate(-50.000000, -50.000000) "></path>
        </g>
    </g>
</svg>