<?xml version="1.0" encoding="UTF-8"?>
<svg width="100px" height="100px" viewBox="0 0 100 100" version="1.1" xmlns="http://www.w3.org/2000/svg" xmlns:xlink="http://www.w3.org/1999/xlink">
    <!-- Generator: Sketch 54.1 (76490) - https://sketchapp.com -->
    <title>sberbank</title>
    <desc>Created with Sketch.</desc>
    <g id="sberbank" stroke="none" stroke-width="1" fill="none" fill-rule="evenodd">
        <g id="sberbank-crypto-cryptocurrency-cryptocurrencies-cash-money-bank-payment_95564" fill-rule="nonzero">
            <circle id="Oval" fill="#48B254" cx="50" cy="50" r="50"></circle>
            <path d="M70.878125,23.025 L73.83125,25.70625 L36.54375,46.99375 L18.49375,36.603125 L20.18125,33.25 L36.54375,42.553125 L70.878125,23.021875 L70.878125,23.025 Z M63.371875,18.75 L67.334375,20.7625 L36.54375,38.3625 L22.20625,30.23125 L24.65,27.3 L36.54375,34.0875 L63.375,18.75 L63.371875,18.75 Z M76.446875,28.471875 L78.6375,31.40625 L36.54375,55.459375 L16.215625,43.89375 L17.14375,40.20625 L36.54375,51.26875 L76.446875,28.471875 Z M82.51875,39.284375 C83.75625,42.75 84.375,46.378125 84.375,50.178125 C84.375,53.978125 83.75625,57.66875 82.51875,61.240625 L81.675,63.50625 C79.9424107,67.5701066 77.4522817,71.267121 74.3375,74.4 C71.1857456,77.4946487 67.4596892,79.943655 63.36875,81.609375 C59.040625,83.453125 54.571875,84.375 49.959375,84.375 C45.290625,84.375 40.81875,83.453125 36.54375,81.609375 C32.5015951,79.9006676 28.8119464,77.4560898 25.6625,74.4 C22.5119586,71.2966491 20.0167864,67.5921473 18.325,63.50625 C16.54375,59.2875 15.621875,54.75625 15.625,50.178125 L15.625,47.915625 L36.54375,59.734375 L80.6625,34.590625 L82.51875,39.284375 L82.51875,39.284375 Z" id="Shape" fill="#FFFFFF"></path>
        </g>
    </g>
</svg>