<?xml version="1.0" encoding="UTF-8"?>
<svg width="100px" height="100px" viewBox="0 0 100 100" version="1.1" xmlns="http://www.w3.org/2000/svg" xmlns:xlink="http://www.w3.org/1999/xlink">
    <!-- Generator: Sketch 54.1 (76490) - https://sketchapp.com -->
    <title>taxi</title>
    <desc>Created with Sketch.</desc>
    <g id="taxi" stroke="none" stroke-width="1" fill="none" fill-rule="evenodd">
        <g id="taxi-(1)" transform="translate(-1.000000, 10.000000)" fill-rule="nonzero">
            <path d="M58.5734667,0.175429333 L42.4612,0.175429333 C40.6321173,0.175429333 39.0710133,1.49795733 38.77008,3.30237333 L37.4201227,11.4015253 L63.6143467,11.4015253 L62.2643893,3.30237333 C61.9636533,1.49795733 60.4025493,0.175429333 58.5734667,0.175429333 Z" id="Path" fill="#FFDC64"></path>
            <g id="Group" transform="translate(3.552000, 26.245333)" fill="#E1A546">
                <rect id="Rectangle" x="0.190032" y="0.12432" width="9.35498133" height="3.742032"></rect>
                <rect id="Rectangle" x="84.3856533" y="0.12432" width="9.35498133" height="3.742032"></rect>
            </g>
            <g id="Group" transform="translate(0.000000, 9.472000)" fill="#FFC850">
                <path d="M78.3930347,0.0584106667 L22.641632,0.0584106667 C20.281328,0.0584106667 18.173216,1.53485867 17.3665173,3.75328 L11.226096,20.6396853 L11.226096,26.2526347 L89.8085707,26.2526347 L89.8085707,20.6396853 L83.6681493,3.75328 C82.8614507,1.53485867 80.7531413,0.0584106667 78.3930347,0.0584106667 L78.3930347,0.0584106667 Z" id="Path"></path>
                <path d="M3.742032,13.1556213 L5.61294933,13.1556213 C7.67962133,13.1556213 9.35498133,14.830784 9.35498133,16.8976533 L9.35498133,16.8976533 C9.35498133,18.9643253 7.67981867,20.6396853 5.61294933,20.6396853 L3.742032,20.6396853 C1.67516267,20.6396853 0,18.9643253 0,16.8976533 L0,16.8976533 C0,14.830784 1.67516267,13.1556213 3.742032,13.1556213 Z" id="Path"></path>
                <path d="M95.4217173,13.1556213 L97.2926347,13.1556213 C99.3593067,13.1556213 101.034667,14.830784 101.034667,16.8976533 L101.034667,16.8976533 C101.034667,18.9643253 99.359504,20.6396853 97.2926347,20.6396853 L95.4217173,20.6396853 C93.354848,20.6396853 91.6796853,18.9645227 91.6796853,16.8976533 L91.6796853,16.8976533 C91.6796853,14.830784 93.354848,13.1556213 95.4217173,13.1556213 Z" id="Path"></path>
            </g>
            <path d="M78.3930347,13.2724427 C79.17704,13.2724427 79.8834933,13.7673547 80.1512747,14.504 L86.0665387,30.7707787 L86.0665387,31.9824053 L14.968128,31.9824053 L14.968128,30.7707787 L20.883392,14.504 C21.1513707,13.7673547 21.8576267,13.2724427 22.641632,13.2724427 L78.3930347,13.2724427" id="Path" fill="#707487"></path>
            <g id="Group" transform="translate(3.552000, 13.221333)" fill="#5B5D6E">
                <path d="M52.5782827,0.0511093333 L19.089632,0.0511093333 C18.3056267,0.0511093333 17.5991733,0.546021333 17.331392,1.28266667 L11.416128,17.5494453 L11.416128,18.761072 L33.86832,18.761072 L52.5782827,0.0511093333 Z" id="Path"></path>
                <path d="M0.190032,48.6975253 L0.190032,63.6656533 C0.190032,64.6988907 1.027712,65.5365707 2.06094933,65.5365707 L7.67389867,65.5365707 C8.707136,65.5365707 9.544816,64.6988907 9.544816,63.6656533 L9.544816,48.6975253 L0.190032,48.6975253 Z" id="Path"></path>
            </g>
            <path d="M3.742032,69.355168 C5.31043733,70.5423253 7.240752,71.27384 9.35498133,71.27384 L13.0970133,71.27384 L13.0970133,61.9188587 L3.742032,61.9188587 L3.742032,69.355168 Z" id="Path" fill="#464655"></path>
            <path d="M97.2926347,61.9188587 L97.2926347,76.8869867 C97.2926347,77.920224 96.4549547,78.757904 95.4217173,78.757904 L89.808768,78.757904 C88.7755307,78.757904 87.9378507,77.920224 87.9378507,76.8869867 L87.9378507,61.9188587 L97.2926347,61.9188587 Z" id="Path" fill="#5B5D6E"></path>
            <path d="M97.2926347,69.355168 C95.7242293,70.5423253 93.7939147,71.27384 91.6796853,71.27384 L87.9376533,71.27384 L87.9376533,61.9188587 L97.2926347,61.9188587 L97.2926347,69.355168 Z" id="Path" fill="#464655"></path>
            <path d="M95.6524,37.416768 L89.8085707,30.1116853 L11.226096,30.1116853 L5.38206933,37.416768 C4.320416,38.7436373 3.742032,40.3923573 3.742032,42.0919893 L3.742032,61.9188587 C3.742032,65.0189653 6.255072,67.531808 9.35498133,67.531808 L91.679488,67.531808 C94.7795947,67.531808 97.2924373,65.018768 97.2924373,61.9188587 L97.2924373,42.0919893 C97.2926347,40.3923573 96.7140533,38.74344 95.6524,37.416768 Z" id="Path" fill="#FFDC64"></path>
            <path d="M18.71016,54.4347947 C17.6769227,54.4347947 16.8392427,53.5971147 16.8392427,52.56368 L16.8392427,42.091792 C16.8392427,40.39216 17.2558133,38.7436373 18.0200853,37.4165707 L22.227824,30.111488 L11.226096,30.111488 L5.38206933,37.4165707 C4.320416,38.7436373 3.742032,40.3923573 3.742032,42.091792 L3.742032,61.9186613 C3.742032,65.018768 6.255072,67.5316107 9.35498133,67.5316107 L91.679488,67.5316107 C94.7795947,67.5316107 97.2924373,65.0185707 97.2924373,61.9186613 L97.2924373,54.4345973 L18.71016,54.4345973 L18.71016,54.4347947 Z" id="Path" fill="#FFC850"></path>
            <path d="M31.3969173,50.6927627 L69.6373547,50.6927627 C70.495952,50.6927627 71.24424,50.1084587 71.4524267,49.2755147 L72.387984,45.5334827 C72.6831947,44.35264 71.7898667,43.2086987 70.572912,43.2086987 L30.4615573,43.2086987 C29.244208,43.2086987 28.3512747,44.35264 28.6464853,45.5334827 L29.5820427,49.2755147 C29.790032,50.1082613 30.5385173,50.6927627 31.3969173,50.6927627 Z" id="Path" fill="#5B5D6E"></path>
            <g id="Group" transform="translate(10.261333, 40.256000)" fill="#FFFFFF">
                <circle id="Oval" cx="6.577712" cy="18.856384" r="2.80647467"></circle>
                <circle id="Oval" cx="73.934288" cy="18.856384" r="2.80647467"></circle>
                <circle id="Oval" cx="5.642352" cy="5.75917333" r="5.61294933"></circle>
                <circle id="Oval" cx="74.869648" cy="5.75917333" r="5.61294933"></circle>
            </g>
            <path d="M71.0984107,60.047744 L29.936256,60.047744 C28.9030187,60.047744 28.0653387,60.885424 28.0653387,61.9186613 L28.0653387,67.5316107 L72.9697227,67.5316107 L72.9697227,61.9186613 C72.9695253,60.8852267 72.131648,60.047744 71.0984107,60.047744 Z" id="Path" fill="#464655"></path>
            <path d="M56.1302827,7.65949333 L44.9041867,7.65949333 C43.8709493,7.65949333 43.0332693,6.82181333 43.0332693,5.788576 L43.0332693,5.788576 C43.0332693,4.75533867 43.8709493,3.91765867 44.9041867,3.91765867 L56.1302827,3.91765867 C57.16352,3.91765867 58.0012,4.75533867 58.0012,5.788576 L58.0012,5.788576 C58.0013973,6.821616 57.1637173,7.65949333 56.1302827,7.65949333 Z" id="Path" fill="#5B5D6E"></path>
        </g>
    </g>
</svg>