<?xml version="1.0" encoding="UTF-8"?>
<svg width="100px" height="100px" viewBox="0 0 100 100" version="1.1" xmlns="http://www.w3.org/2000/svg" xmlns:xlink="http://www.w3.org/1999/xlink">
    <!-- Generator: Sketch 54.1 (76490) - https://sketchapp.com -->
    <title>user</title>
    <desc>Created with Sketch.</desc>
    <g id="user" stroke="none" stroke-width="1" fill="none" fill-rule="evenodd">
        <g id="profile-user" transform="translate(-1.000000, -1.000000)" fill="#000000" fill-rule="nonzero">
            <path d="M50.8982609,0.89826087 C23.2856977,0.89826087 0.896064516,23.2835014 0.896064516,50.8982609 C0.896064516,78.5130204 23.2835014,100.898261 50.8982609,100.898261 C78.5152167,100.898261 100.900457,78.5130204 100.900457,50.8982609 C100.900457,23.2835014 78.5152167,0.89826087 50.8982609,0.89826087 Z M50.8982609,15.8488429 C60.0350937,15.8488429 67.4390032,23.2549488 67.4390032,32.3873889 C67.4390032,41.5220254 60.0350937,48.9259349 50.8982609,48.9259349 C41.7658207,48.9259349 34.3619112,41.5220254 34.3619112,32.3873889 C34.3619112,23.2549488 41.7658207,15.8488429 50.8982609,15.8488429 Z M50.8872791,87.8255616 C41.7746061,87.8255616 33.4284607,84.5068706 26.990947,79.0137891 C25.4227502,77.6762095 24.5178523,75.7148653 24.5178523,73.6568816 C24.5178523,64.3948565 32.0140087,56.9821616 41.2782301,56.9821616 L60.5226843,56.9821616 C69.7891021,56.9821616 77.2567059,64.3948565 77.2567059,73.6568816 C77.2567059,75.7170617 76.3562007,77.6740131 74.7858075,79.0115927 C68.3504902,84.5068706 60.0021484,87.8255616 50.8872791,87.8255616 Z" id="Shape"></path>
        </g>
    </g>
</svg>