<?xml version="1.0" encoding="UTF-8"?>
<svg width="100px" height="100px" viewBox="0 0 100 100" version="1.1" xmlns="http://www.w3.org/2000/svg" xmlns:xlink="http://www.w3.org/1999/xlink">
    <!-- Generator: Sketch 54.1 (76490) - https://sketchapp.com -->
    <title>user-outline</title>
    <desc>Created with Sketch.</desc>
    <g id="user-outline" stroke="none" stroke-width="1" fill="none" fill-rule="evenodd">
        <g id="user" transform="translate(8.203125, 0.000000)" fill="#000000" fill-rule="nonzero">
            <path d="M41.0842895,48.1704711 C47.7020264,48.1704711 53.4317016,45.7969666 58.114624,41.1140441 C62.7960205,36.4318848 65.1702881,30.7029725 65.1702881,24.0844727 C65.1702881,17.4682617 62.7967834,11.7385863 58.1138611,7.05490117 C53.4309387,2.37350469 47.7012635,0 41.0842895,0 C34.4657898,0 28.7368773,2.37350469 24.054718,7.05566406 C19.3725586,11.7378234 16.998291,17.4674988 16.998291,24.0844727 C16.998291,30.7029725 19.3725586,36.4326477 24.054718,41.114807 C28.7384033,45.7962035 34.4680785,48.1704711 41.0842895,48.1704711 Z M28.1990051,11.1991883 C31.7916871,7.60650625 36.0061645,5.86013789 41.0842895,5.86013789 C46.1616516,5.86013789 50.3768922,7.60650625 53.9703369,11.1991883 C57.5630187,14.792633 59.3101502,19.0078734 59.3101502,24.0844727 C59.3101502,29.1625977 57.5630187,33.3770752 53.9703369,36.9705199 C50.3768922,40.5639648 46.1616516,42.3103332 41.0842895,42.3103332 C36.0076904,42.3103332 31.7932129,40.563202 28.1990051,36.9705199 C24.6055604,33.3778381 22.8584289,29.1625977 22.8584289,24.0844727 C22.8584289,19.0078734 24.6055604,14.792633 28.1990051,11.1991883 Z" id="Shape"></path>
            <path d="M83.228302,76.8951416 C83.0932617,74.9465941 82.8201293,72.8210449 82.4180604,70.576477 C82.0121766,68.3151246 81.4895629,66.1773682 80.8639527,64.2234803 C80.2169801,62.2039795 79.3388367,60.2096559 78.251648,58.2984924 C77.1247863,56.3148498 75.8003234,54.5875549 74.3141174,53.1661988 C72.7600098,51.6792297 70.8572387,50.4837035 68.6569215,49.6116639 C66.4642334,48.7442016 64.0342713,48.3047484 61.4349365,48.3047484 C60.4141234,48.3047484 59.4268799,48.7236023 57.5202941,49.9649047 C56.3468934,50.730133 54.9743652,51.6151428 53.4423828,52.5939941 C52.1324158,53.42865 50.3578186,54.2106629 48.1658936,54.9186707 C46.0273742,55.6106566 43.8560486,55.961609 41.7121887,55.961609 C39.5698547,55.961609 37.3985291,55.6106566 35.258484,54.9186707 C33.0688477,54.2114258 31.2934875,53.4294129 29.9858094,52.594757 C28.4683227,51.6250609 27.0950316,50.7400512 25.9040832,49.9641418 C23.9990234,48.7228395 23.0117797,48.3039855 21.9909668,48.3039855 C19.3908691,48.3039855 16.9616699,48.7442016 14.7697449,49.6124268 C12.5709533,50.4829406 10.6674195,51.6784668 9.11178594,53.1669617 C7.62557988,54.5890809 6.30111699,56.3156129 5.17501836,58.2984924 C4.08935547,60.2096559 3.21044922,62.2032166 2.56347656,64.2242432 C1.9386291,66.1781311 1.41601562,68.3151246 1.01013184,70.576477 C0.607299805,72.8179932 0.334930469,74.9443055 0.199890234,76.8974305 C0.0671386719,78.807068 0,80.7945252 0,82.8025818 C0,88.0226135 1.65939336,92.2485352 4.93164062,95.3651428 C8.16345215,98.4405518 12.4389648,100 17.639923,100 L65.7905578,100 C70.9899902,100 75.2655029,98.4405518 78.4980773,95.3651428 C81.7710877,92.250824 83.4304809,88.0233766 83.4304809,82.8018188 C83.429718,80.7868957 83.3618164,78.7994385 83.228302,76.8951416 L83.228302,76.8951416 Z M74.45755,91.1193848 C72.3220824,93.1518555 69.4869996,94.1398621 65.7897949,94.1398621 L17.639923,94.1398621 C13.9419555,94.1398621 11.1068727,93.1518555 8.97216797,91.1201477 C6.87789922,89.1265869 5.86013789,86.4051818 5.86013789,82.8025818 C5.86013789,80.9288025 5.92193594,79.0786742 6.04553223,77.3025512 C6.16607656,75.5599977 6.41250605,73.6457824 6.7779541,71.6117859 C7.13882441,69.6029664 7.59811406,67.717743 8.14437871,66.0110473 C8.66851797,64.3745422 9.38339238,62.7540588 10.2699279,61.1930848 C11.1160277,59.7053527 12.0895387,58.4289551 13.1637574,57.4005127 C14.1685486,56.4384461 15.4350281,55.6510926 16.9273377,55.0605773 C18.3074951,54.5143127 19.858551,54.2152404 21.5423584,54.170227 C21.7475891,54.2793273 22.1130371,54.4876098 22.7050781,54.8736572 C23.9097596,55.6587219 25.2983094,56.5544129 26.8333436,57.53479 C28.5636902,58.6380004 30.7929992,59.6343994 33.4564209,60.4942322 C36.1793518,61.3746643 38.9564514,61.8217469 41.7129516,61.8217469 C44.469452,61.8217469 47.2473145,61.3746643 49.9687195,60.4949951 C52.6344299,59.6336365 54.8629762,58.6380004 56.5956115,57.5332641 C58.1665039,56.5292359 59.5161437,55.6594848 60.7208252,54.8736572 C61.3128662,54.4883729 61.6783143,54.2793273 61.8835449,54.170227 C63.5681152,54.2152404 65.1191711,54.5143127 66.5000916,55.0605773 C67.9916383,55.6510926 69.2581176,56.439209 70.262909,57.4005127 C71.3371277,58.4281922 72.3106385,59.7045898 73.1567383,61.1938477 C74.0440369,62.7540588 74.759674,64.3753051 75.2830506,66.0102844 C75.8300781,67.7192687 76.2901307,69.6037293 76.6502381,71.611023 C77.014923,73.6488342 77.2621154,75.5638123 77.38266,77.3033143 L77.38266,77.30484 C77.5070191,79.0740967 77.5695801,80.9234619 77.570343,82.8025818 C77.5695801,86.4059449 76.5518187,89.1265869 74.45755,91.1193848 L74.45755,91.1193848 Z" id="Shape"></path>
        </g>
    </g>
</svg>