<?xml version="1.0" encoding="UTF-8"?>
<svg width="100px" height="100px" viewBox="0 0 100 100" version="1.1" xmlns="http://www.w3.org/2000/svg" xmlns:xlink="http://www.w3.org/1999/xlink">
    <!-- Generator: Sketch 54.1 (76490) - https://sketchapp.com -->
    <title>word-a</title>
    <desc>Created with Sketch.</desc>
    <g id="word-a" stroke="none" stroke-width="1" fill="none" fill-rule="evenodd">
        <path d="M49.5111526,21.4588543 L40.1798567,56.9060104 L59.4002635,56.9060104 L49.9748717,21.1014088 L49.9748717,21.1014088 C49.7570559,21.1014088 49.5666025,21.2482147 49.5111526,21.4588543 Z M67.0404685,6.97102229 L86.0151835,88.9710223 C87.1357569,93.8136258 84.1184554,98.6477359 79.2758518,99.7683094 C78.6105068,99.9222695 77.9297999,100 77.2468741,100 L70.2866437,100 C65.702573,100 61.8509396,96.5545118 61.3422327,91.9987548 L60.6023396,85.3725953 C60.0936326,80.8168383 56.2419993,77.3713501 51.6579285,77.3713501 L48.0776627,77.3713501 C43.493592,77.3713501 39.6419586,80.8168383 39.1332517,85.3725953 L38.3933586,91.9987548 C37.8846516,96.5545118 34.0330182,100 29.4489475,100 L22.8437456,100 C17.8731828,100 13.8437456,95.9705627 13.8437456,91 C13.8437456,90.3284809 13.9189012,89.6590712 14.067809,89.0042702 L32.7153738,7.00427018 C33.6470807,2.90722221 37.2896583,-4.55723956e-15 41.4913103,-5.32907052e-15 L58.2721591,1.77635684e-15 C62.4610508,1.0068699e-15 66.0961165,2.88996685 67.0404685,6.97102229 Z" id="A" fill="#1B95E6" fill-rule="nonzero"></path>
    </g>
</svg>