<?xml version="1.0" encoding="UTF-8"?>
<svg width="100px" height="100px" viewBox="0 0 100 100" version="1.1" xmlns="http://www.w3.org/2000/svg" xmlns:xlink="http://www.w3.org/1999/xlink">
    <!-- Generator: Sketch 54.1 (76490) - https://sketchapp.com -->
    <title>word-b</title>
    <desc>Created with Sketch.</desc>
    <g id="word-b" stroke="none" stroke-width="1" fill="none" fill-rule="evenodd">
        <path d="M41.3165266,81.232493 L48.5994398,81.232493 C51.0270896,81.232493 53.1745938,80.2287682 55.0420168,78.2212885 C56.9094398,76.2138088 57.8431373,73.1092647 57.8431373,68.907563 C57.8431373,64.9859748 56.9094398,61.9981429 55.0420168,59.9439776 C53.1745938,57.8898123 51.0270896,56.8627451 48.5994398,56.8627451 L41.3165266,56.8627451 L41.3165266,81.232493 Z M41.3165266,39.2156863 L47.6190476,39.2156863 C50.3268109,39.2156863 52.3809454,38.2119615 53.7815126,36.2044818 C55.1820798,34.1970021 55.8823529,31.839416 55.8823529,29.1316527 C55.8823529,26.3305182 55.1820798,23.9029048 53.7815126,21.8487395 C52.3809454,19.7945742 50.3268109,18.767507 47.6190476,18.767507 L41.3165266,18.767507 L41.3165266,39.2156863 Z M22.2661064,0 L54.6218487,0 C63.9589636,0 70.8449825,2.26421639 75.280112,6.79271709 C79.7152416,11.3212178 81.9327731,17.366909 81.9327731,24.929972 C81.9327731,27.5443641 81.6293214,30.0886898 81.022409,32.5630252 C80.4154965,35.0373606 79.481799,37.2782346 78.2212885,39.2857143 C76.960778,41.293194 75.3501499,42.9971919 73.3893557,44.3977591 C71.4285616,45.7983263 69.0476331,46.7787087 66.2464986,47.3389356 L66.2464986,47.6190476 C69.5144888,47.8991611 72.3155812,48.7628312 74.6498599,50.210084 C76.9841387,51.6573368 78.8982185,53.4547045 80.3921569,55.6022409 C81.8860952,57.7497773 82.9831898,60.1073634 83.6834734,62.67507 C84.383757,65.2427766 84.7338936,67.8337871 84.7338936,70.4481793 C84.7338936,74.7432521 84.1736751,78.7114664 83.0532213,82.3529412 C81.9327675,85.994416 80.1820847,89.1223025 77.8011204,91.7366947 C75.4201562,94.3510868 72.315612,96.3818789 68.487395,97.8291317 C64.6591779,99.2763845 60.0373754,100 54.6218487,100 L22.2661064,100 C18.4001132,100 15.2661064,96.8659932 15.2661064,93 L15.2661064,7 C15.2661064,3.13400675 18.4001132,7.10171439e-16 22.2661064,0 Z" id="B" fill="#45BB2D" fill-rule="nonzero"></path>
    </g>
</svg>